<svg width="327" height="351" viewBox="0 0 327 351" fill="none" xmlns="http://www.w3.org/2000/svg">
<path fill-rule="evenodd" clip-rule="evenodd" d="M82.3109 190.472C77.2221 169.58 100.657 152.764 104.62 131.629C108.853 109.059 92.4937 83.0489 105.945 64.4372C119.564 45.5938 146.939 37.7692 169.923 41.2743C191.567 44.575 200.57 70.9088 219.582 81.7668C239.204 92.9736 268.406 86.5805 281.5 104.997C294.831 123.749 291.155 150.441 283.938 172.288C277.127 192.91 258.606 205.773 243.166 221.047C226.501 237.534 213.676 262.355 190.368 264.854C167.027 267.355 148.708 246.555 129.371 233.244C111.472 220.923 87.4534 211.584 82.3109 190.472Z" fill="#D5CEA3" fill-opacity="0.2"/>
<path d="M1.69 202.38C2.62336 202.38 3.38 201.623 3.38 200.69C3.38 199.757 2.62336 199 1.69 199C0.756637 199 0 199.757 0 200.69C0 201.623 0.756637 202.38 1.69 202.38Z" fill="#D5CEA3" fill-opacity="0.5"/>
<path d="M16.8899 202.38C17.8233 202.38 18.5799 201.623 18.5799 200.69C18.5799 199.757 17.8233 199 16.8899 199C15.9566 199 15.2 199.757 15.2 200.69C15.2 201.623 15.9566 202.38 16.8899 202.38Z" fill="#D5CEA3" fill-opacity="0.5"/>
<path d="M32.0899 202.38C33.0233 202.38 33.7799 201.623 33.7799 200.69C33.7799 199.757 33.0233 199 32.0899 199C31.1565 199 30.3999 199.757 30.3999 200.69C30.3999 201.623 31.1565 202.38 32.0899 202.38Z" fill="#D5CEA3" fill-opacity="0.5"/>
<path d="M48.9801 200.69C48.9801 201.62 48.2201 202.38 47.2901 202.38C46.3601 202.38 45.6001 201.62 45.6001 200.69C45.6001 199.76 46.3601 199 47.2901 199C48.2201 199 48.9801 199.76 48.9801 200.69Z" fill="#D5CEA3" fill-opacity="0.5"/>
<path d="M64.18 200.69C64.18 201.62 63.4201 202.38 62.4901 202.38C61.5601 202.38 60.8 201.62 60.8 200.69C60.8 199.76 61.5601 199 62.4901 199C63.4201 199 64.18 199.76 64.18 200.69Z" fill="#D5CEA3" fill-opacity="0.5"/>
<path d="M77.69 202.38C78.6234 202.38 79.38 201.623 79.38 200.69C79.38 199.757 78.6234 199 77.69 199C76.7566 199 76 199.757 76 200.69C76 201.623 76.7566 202.38 77.69 202.38Z" fill="#D5CEA3" fill-opacity="0.5"/>
<path d="M92.8899 202.38C93.8233 202.38 94.5799 201.623 94.5799 200.69C94.5799 199.757 93.8233 199 92.8899 199C91.9566 199 91.2 199.757 91.2 200.69C91.2 201.623 91.9566 202.38 92.8899 202.38Z" fill="#D5CEA3" fill-opacity="0.5"/>
<path d="M108.09 202.38C109.023 202.38 109.78 201.623 109.78 200.69C109.78 199.757 109.023 199 108.09 199C107.157 199 106.4 199.757 106.4 200.69C106.4 201.623 107.157 202.38 108.09 202.38Z" fill="#D5CEA3" fill-opacity="0.5"/>
<path d="M123.29 202.38C124.223 202.38 124.98 201.623 124.98 200.69C124.98 199.757 124.223 199 123.29 199C122.357 199 121.6 199.757 121.6 200.69C121.6 201.623 122.357 202.38 123.29 202.38Z" fill="#D5CEA3" fill-opacity="0.5"/>
<path d="M138.49 202.38C139.423 202.38 140.18 201.623 140.18 200.69C140.18 199.757 139.423 199 138.49 199C137.557 199 136.8 199.757 136.8 200.69C136.8 201.623 137.557 202.38 138.49 202.38Z" fill="#D5CEA3" fill-opacity="0.5"/>
<path d="M153.69 202.38C154.623 202.38 155.38 201.623 155.38 200.69C155.38 199.757 154.623 199 153.69 199C152.757 199 152 199.757 152 200.69C152 201.623 152.757 202.38 153.69 202.38Z" fill="#D5CEA3" fill-opacity="0.5"/>
<path d="M1.69 215.89C2.62336 215.89 3.38 215.133 3.38 214.2C3.38 213.267 2.62336 212.51 1.69 212.51C0.756637 212.51 0 213.267 0 214.2C0 215.133 0.756637 215.89 1.69 215.89Z" fill="#D5CEA3" fill-opacity="0.5"/>
<path d="M16.8899 215.89C17.8233 215.89 18.5799 215.133 18.5799 214.2C18.5799 213.267 17.8233 212.51 16.8899 212.51C15.9566 212.51 15.2 213.267 15.2 214.2C15.2 215.133 15.9566 215.89 16.8899 215.89Z" fill="#D5CEA3" fill-opacity="0.5"/>
<path d="M32.0899 215.89C33.0233 215.89 33.7799 215.133 33.7799 214.2C33.7799 213.267 33.0233 212.51 32.0899 212.51C31.1565 212.51 30.3999 213.267 30.3999 214.2C30.3999 215.133 31.1565 215.89 32.0899 215.89Z" fill="#D5CEA3" fill-opacity="0.5"/>
<path d="M48.9801 214.2C48.9801 215.13 48.2201 215.89 47.2901 215.89C46.3601 215.89 45.6001 215.13 45.6001 214.2C45.6001 213.27 46.3601 212.51 47.2901 212.51C48.2201 212.51 48.9801 213.27 48.9801 214.2Z" fill="#D5CEA3" fill-opacity="0.5"/>
<path d="M64.18 214.2C64.18 215.13 63.4201 215.89 62.4901 215.89C61.5601 215.89 60.8 215.13 60.8 214.2C60.8 213.27 61.5601 212.51 62.4901 212.51C63.4201 212.51 64.18 213.27 64.18 214.2Z" fill="#D5CEA3" fill-opacity="0.5"/>
<path d="M77.69 215.89C78.6234 215.89 79.38 215.133 79.38 214.2C79.38 213.267 78.6234 212.51 77.69 212.51C76.7566 212.51 76 213.267 76 214.2C76 215.133 76.7566 215.89 77.69 215.89Z" fill="#D5CEA3" fill-opacity="0.5"/>
<path d="M92.8899 215.89C93.8233 215.89 94.5799 215.133 94.5799 214.2C94.5799 213.267 93.8233 212.51 92.8899 212.51C91.9566 212.51 91.2 213.267 91.2 214.2C91.2 215.133 91.9566 215.89 92.8899 215.89Z" fill="#D5CEA3" fill-opacity="0.5"/>
<path d="M108.09 215.89C109.023 215.89 109.78 215.133 109.78 214.2C109.78 213.267 109.023 212.51 108.09 212.51C107.157 212.51 106.4 213.267 106.4 214.2C106.4 215.133 107.157 215.89 108.09 215.89Z" fill="#D5CEA3" fill-opacity="0.5"/>
<path d="M123.29 215.89C124.223 215.89 124.98 215.133 124.98 214.2C124.98 213.267 124.223 212.51 123.29 212.51C122.357 212.51 121.6 213.267 121.6 214.2C121.6 215.133 122.357 215.89 123.29 215.89Z" fill="#D5CEA3" fill-opacity="0.5"/>
<path d="M138.49 215.89C139.423 215.89 140.18 215.133 140.18 214.2C140.18 213.267 139.423 212.51 138.49 212.51C137.557 212.51 136.8 213.267 136.8 214.2C136.8 215.133 137.557 215.89 138.49 215.89Z" fill="#D5CEA3" fill-opacity="0.5"/>
<path d="M153.69 215.89C154.623 215.89 155.38 215.133 155.38 214.2C155.38 213.267 154.623 212.51 153.69 212.51C152.757 212.51 152 213.267 152 214.2C152 215.133 152.757 215.89 153.69 215.89Z" fill="#D5CEA3" fill-opacity="0.5"/>
<path d="M1.69 229.4C2.62336 229.4 3.38 228.643 3.38 227.71C3.38 226.777 2.62336 226.02 1.69 226.02C0.756637 226.02 0 226.777 0 227.71C0 228.643 0.756637 229.4 1.69 229.4Z" fill="#D5CEA3" fill-opacity="0.5"/>
<path d="M16.8899 229.4C17.8233 229.4 18.5799 228.643 18.5799 227.71C18.5799 226.777 17.8233 226.02 16.8899 226.02C15.9566 226.02 15.2 226.777 15.2 227.71C15.2 228.643 15.9566 229.4 16.8899 229.4Z" fill="#D5CEA3" fill-opacity="0.5"/>
<path d="M32.0899 229.4C33.0233 229.4 33.7799 228.643 33.7799 227.71C33.7799 226.777 33.0233 226.02 32.0899 226.02C31.1565 226.02 30.3999 226.777 30.3999 227.71C30.3999 228.643 31.1565 229.4 32.0899 229.4Z" fill="#D5CEA3" fill-opacity="0.5"/>
<path d="M48.9801 227.71C48.9801 228.64 48.2201 229.4 47.2901 229.4C46.3601 229.4 45.6001 228.64 45.6001 227.71C45.6001 226.78 46.3601 226.02 47.2901 226.02C48.2201 226.02 48.9801 226.78 48.9801 227.71Z" fill="#D5CEA3" fill-opacity="0.5"/>
<path d="M64.18 227.71C64.18 228.64 63.4201 229.4 62.4901 229.4C61.5601 229.4 60.8 228.64 60.8 227.71C60.8 226.78 61.5601 226.02 62.4901 226.02C63.4201 226.02 64.18 226.78 64.18 227.71Z" fill="#D5CEA3" fill-opacity="0.5"/>
<path d="M77.69 229.4C78.6234 229.4 79.38 228.643 79.38 227.71C79.38 226.777 78.6234 226.02 77.69 226.02C76.7566 226.02 76 226.777 76 227.71C76 228.643 76.7566 229.4 77.69 229.4Z" fill="#D5CEA3" fill-opacity="0.5"/>
<path d="M92.8899 229.4C93.8233 229.4 94.5799 228.643 94.5799 227.71C94.5799 226.777 93.8233 226.02 92.8899 226.02C91.9566 226.02 91.2 226.777 91.2 227.71C91.2 228.643 91.9566 229.4 92.8899 229.4Z" fill="#D5CEA3" fill-opacity="0.5"/>
<path d="M108.09 229.4C109.023 229.4 109.78 228.643 109.78 227.71C109.78 226.777 109.023 226.02 108.09 226.02C107.157 226.02 106.4 226.777 106.4 227.71C106.4 228.643 107.157 229.4 108.09 229.4Z" fill="#D5CEA3" fill-opacity="0.5"/>
<path d="M123.29 229.4C124.223 229.4 124.98 228.643 124.98 227.71C124.98 226.777 124.223 226.02 123.29 226.02C122.357 226.02 121.6 226.777 121.6 227.71C121.6 228.643 122.357 229.4 123.29 229.4Z" fill="#D5CEA3" fill-opacity="0.5"/>
<path d="M138.49 229.4C139.423 229.4 140.18 228.643 140.18 227.71C140.18 226.777 139.423 226.02 138.49 226.02C137.557 226.02 136.8 226.777 136.8 227.71C136.8 228.643 137.557 229.4 138.49 229.4Z" fill="#D5CEA3" fill-opacity="0.5"/>
<path d="M153.69 229.4C154.623 229.4 155.38 228.643 155.38 227.71C155.38 226.777 154.623 226.02 153.69 226.02C152.757 226.02 152 226.777 152 227.71C152 228.643 152.757 229.4 153.69 229.4Z" fill="#D5CEA3" fill-opacity="0.5"/>
<path d="M3.38 241.22C3.38 242.15 2.62 242.91 1.69 242.91C0.759999 242.91 0 242.15 0 241.22C0 240.29 0.759999 239.53 1.69 239.53C2.62 239.53 3.38 240.29 3.38 241.22Z" fill="#D5CEA3" fill-opacity="0.5"/>
<path d="M18.5799 241.22C18.5799 242.15 17.8199 242.91 16.8899 242.91C15.9599 242.91 15.2 242.15 15.2 241.22C15.2 240.29 15.9599 239.53 16.8899 239.53C17.8199 239.53 18.5799 240.29 18.5799 241.22Z" fill="#D5CEA3" fill-opacity="0.5"/>
<path d="M33.7799 241.22C33.7799 242.15 33.0199 242.91 32.0899 242.91C31.1599 242.91 30.3999 242.15 30.3999 241.22C30.3999 240.29 31.1599 239.53 32.0899 239.53C33.0199 239.53 33.7799 240.29 33.7799 241.22Z" fill="#D5CEA3" fill-opacity="0.5"/>
<path d="M48.9801 241.22C48.9801 242.15 48.2201 242.91 47.2901 242.91C46.3601 242.91 45.6001 242.15 45.6001 241.22C45.6001 240.29 46.3601 239.53 47.2901 239.53C48.2201 239.53 48.9801 240.29 48.9801 241.22Z" fill="#D5CEA3" fill-opacity="0.5"/>
<path d="M64.18 241.22C64.18 242.15 63.4201 242.91 62.4901 242.91C61.5601 242.91 60.8 242.15 60.8 241.22C60.8 240.29 61.5601 239.53 62.4901 239.53C63.4201 239.53 64.18 240.29 64.18 241.22Z" fill="#D5CEA3" fill-opacity="0.5"/>
<path d="M79.38 241.22C79.38 242.15 78.62 242.91 77.69 242.91C76.76 242.91 76 242.15 76 241.22C76 240.29 76.76 239.53 77.69 239.53C78.62 239.53 79.38 240.29 79.38 241.22Z" fill="#D5CEA3" fill-opacity="0.5"/>
<path d="M94.5799 241.22C94.5799 242.15 93.8199 242.91 92.8899 242.91C91.9599 242.91 91.2 242.15 91.2 241.22C91.2 240.29 91.9599 239.53 92.8899 239.53C93.8199 239.53 94.5799 240.29 94.5799 241.22Z" fill="#D5CEA3" fill-opacity="0.5"/>
<path d="M109.78 241.22C109.78 242.15 109.02 242.91 108.09 242.91C107.16 242.91 106.4 242.15 106.4 241.22C106.4 240.29 107.16 239.53 108.09 239.53C109.02 239.53 109.78 240.29 109.78 241.22Z" fill="#D5CEA3" fill-opacity="0.5"/>
<path d="M124.98 241.22C124.98 242.15 124.22 242.91 123.29 242.91C122.36 242.91 121.6 242.15 121.6 241.22C121.6 240.29 122.36 239.53 123.29 239.53C124.22 239.53 124.98 240.29 124.98 241.22Z" fill="#D5CEA3" fill-opacity="0.5"/>
<path d="M140.18 241.22C140.18 242.15 139.42 242.91 138.49 242.91C137.56 242.91 136.8 242.15 136.8 241.22C136.8 240.29 137.56 239.53 138.49 239.53C139.42 239.53 140.18 240.29 140.18 241.22Z" fill="#D5CEA3" fill-opacity="0.5"/>
<path d="M155.38 241.22C155.38 242.15 154.62 242.91 153.69 242.91C152.76 242.91 152 242.15 152 241.22C152 240.29 152.76 239.53 153.69 239.53C154.62 239.53 155.38 240.29 155.38 241.22Z" fill="#D5CEA3" fill-opacity="0.5"/>
<path d="M3.38 254.73C3.38 255.66 2.62 256.42 1.69 256.42C0.759999 256.42 0 255.66 0 254.73C0 253.8 0.759999 253.04 1.69 253.04C2.62 253.04 3.38 253.8 3.38 254.73Z" fill="#D5CEA3" fill-opacity="0.5"/>
<path d="M18.5799 254.73C18.5799 255.66 17.8199 256.42 16.8899 256.42C15.9599 256.42 15.2 255.66 15.2 254.73C15.2 253.8 15.9599 253.04 16.8899 253.04C17.8199 253.04 18.5799 253.8 18.5799 254.73Z" fill="#D5CEA3" fill-opacity="0.5"/>
<path d="M33.7799 254.73C33.7799 255.66 33.0199 256.42 32.0899 256.42C31.1599 256.42 30.3999 255.66 30.3999 254.73C30.3999 253.8 31.1599 253.04 32.0899 253.04C33.0199 253.04 33.7799 253.8 33.7799 254.73Z" fill="#D5CEA3" fill-opacity="0.5"/>
<path d="M48.9801 254.73C48.9801 255.66 48.2201 256.42 47.2901 256.42C46.3601 256.42 45.6001 255.66 45.6001 254.73C45.6001 253.8 46.3601 253.04 47.2901 253.04C48.2201 253.04 48.9801 253.8 48.9801 254.73Z" fill="#D5CEA3" fill-opacity="0.5"/>
<path d="M64.18 254.73C64.18 255.66 63.4201 256.42 62.4901 256.42C61.5601 256.42 60.8 255.66 60.8 254.73C60.8 253.8 61.5601 253.04 62.4901 253.04C63.4201 253.04 64.18 253.8 64.18 254.73Z" fill="#D5CEA3" fill-opacity="0.5"/>
<path d="M79.38 254.73C79.38 255.66 78.62 256.42 77.69 256.42C76.76 256.42 76 255.66 76 254.73C76 253.8 76.76 253.04 77.69 253.04C78.62 253.04 79.38 253.8 79.38 254.73Z" fill="#D5CEA3" fill-opacity="0.5"/>
<path d="M94.5799 254.73C94.5799 255.66 93.8199 256.42 92.8899 256.42C91.9599 256.42 91.2 255.66 91.2 254.73C91.2 253.8 91.9599 253.04 92.8899 253.04C93.8199 253.04 94.5799 253.8 94.5799 254.73Z" fill="#D5CEA3" fill-opacity="0.5"/>
<path d="M109.78 254.73C109.78 255.66 109.02 256.42 108.09 256.42C107.16 256.42 106.4 255.66 106.4 254.73C106.4 253.8 107.16 253.04 108.09 253.04C109.02 253.04 109.78 253.8 109.78 254.73Z" fill="#D5CEA3" fill-opacity="0.5"/>
<path d="M124.98 254.73C124.98 255.66 124.22 256.42 123.29 256.42C122.36 256.42 121.6 255.66 121.6 254.73C121.6 253.8 122.36 253.04 123.29 253.04C124.22 253.04 124.98 253.8 124.98 254.73Z" fill="#D5CEA3" fill-opacity="0.5"/>
<path d="M140.18 254.73C140.18 255.66 139.42 256.42 138.49 256.42C137.56 256.42 136.8 255.66 136.8 254.73C136.8 253.8 137.56 253.04 138.49 253.04C139.42 253.04 140.18 253.8 140.18 254.73Z" fill="#D5CEA3" fill-opacity="0.5"/>
<path d="M155.38 254.73C155.38 255.66 154.62 256.42 153.69 256.42C152.76 256.42 152 255.66 152 254.73C152 253.8 152.76 253.04 153.69 253.04C154.62 253.04 155.38 253.8 155.38 254.73Z" fill="#D5CEA3" fill-opacity="0.5"/>
<path d="M3.38 268.24C3.38 269.17 2.62 269.93 1.69 269.93C0.759999 269.93 0 269.17 0 268.24C0 267.31 0.759999 266.55 1.69 266.55C2.62 266.55 3.38 267.31 3.38 268.24Z" fill="#D5CEA3" fill-opacity="0.5"/>
<path d="M18.5799 268.24C18.5799 269.17 17.8199 269.93 16.8899 269.93C15.9599 269.93 15.2 269.17 15.2 268.24C15.2 267.31 15.9599 266.55 16.8899 266.55C17.8199 266.55 18.5799 267.31 18.5799 268.24Z" fill="#D5CEA3" fill-opacity="0.5"/>
<path d="M33.7799 268.24C33.7799 269.17 33.0199 269.93 32.0899 269.93C31.1599 269.93 30.3999 269.17 30.3999 268.24C30.3999 267.31 31.1599 266.55 32.0899 266.55C33.0199 266.55 33.7799 267.31 33.7799 268.24Z" fill="#D5CEA3" fill-opacity="0.5"/>
<path d="M48.9801 268.24C48.9801 269.17 48.2201 269.93 47.2901 269.93C46.3601 269.93 45.6001 269.17 45.6001 268.24C45.6001 267.31 46.3601 266.55 47.2901 266.55C48.2201 266.55 48.9801 267.31 48.9801 268.24Z" fill="#D5CEA3" fill-opacity="0.5"/>
<path d="M64.18 268.24C64.18 269.17 63.4201 269.93 62.4901 269.93C61.5601 269.93 60.8 269.17 60.8 268.24C60.8 267.31 61.5601 266.55 62.4901 266.55C63.4201 266.55 64.18 267.31 64.18 268.24Z" fill="#D5CEA3" fill-opacity="0.5"/>
<path d="M79.38 268.24C79.38 269.17 78.62 269.93 77.69 269.93C76.76 269.93 76 269.17 76 268.24C76 267.31 76.76 266.55 77.69 266.55C78.62 266.55 79.38 267.31 79.38 268.24Z" fill="#D5CEA3" fill-opacity="0.5"/>
<path d="M94.5799 268.24C94.5799 269.17 93.8199 269.93 92.8899 269.93C91.9599 269.93 91.2 269.17 91.2 268.24C91.2 267.31 91.9599 266.55 92.8899 266.55C93.8199 266.55 94.5799 267.31 94.5799 268.24Z" fill="#D5CEA3" fill-opacity="0.5"/>
<path d="M109.78 268.24C109.78 269.17 109.02 269.93 108.09 269.93C107.16 269.93 106.4 269.17 106.4 268.24C106.4 267.31 107.16 266.55 108.09 266.55C109.02 266.55 109.78 267.31 109.78 268.24Z" fill="#D5CEA3" fill-opacity="0.5"/>
<path d="M124.98 268.24C124.98 269.17 124.22 269.93 123.29 269.93C122.36 269.93 121.6 269.17 121.6 268.24C121.6 267.31 122.36 266.55 123.29 266.55C124.22 266.55 124.98 267.31 124.98 268.24Z" fill="#D5CEA3" fill-opacity="0.5"/>
<path d="M140.18 268.24C140.18 269.17 139.42 269.93 138.49 269.93C137.56 269.93 136.8 269.17 136.8 268.24C136.8 267.31 137.56 266.55 138.49 266.55C139.42 266.55 140.18 267.31 140.18 268.24Z" fill="#D5CEA3" fill-opacity="0.5"/>
<path d="M155.38 268.24C155.38 269.17 154.62 269.93 153.69 269.93C152.76 269.93 152 269.17 152 268.24C152 267.31 152.76 266.55 153.69 266.55C154.62 266.55 155.38 267.31 155.38 268.24Z" fill="#D5CEA3" fill-opacity="0.5"/>
<path d="M1.69 283.44C2.62336 283.44 3.38 282.683 3.38 281.75C3.38 280.817 2.62336 280.06 1.69 280.06C0.756637 280.06 0 280.817 0 281.75C0 282.683 0.756637 283.44 1.69 283.44Z" fill="#D5CEA3" fill-opacity="0.5"/>
<path d="M16.8899 283.44C17.8233 283.44 18.5799 282.683 18.5799 281.75C18.5799 280.817 17.8233 280.06 16.8899 280.06C15.9566 280.06 15.2 280.817 15.2 281.75C15.2 282.683 15.9566 283.44 16.8899 283.44Z" fill="#D5CEA3" fill-opacity="0.5"/>
<path d="M32.0899 283.44C33.0233 283.44 33.7799 282.683 33.7799 281.75C33.7799 280.817 33.0233 280.06 32.0899 280.06C31.1565 280.06 30.3999 280.817 30.3999 281.75C30.3999 282.683 31.1565 283.44 32.0899 283.44Z" fill="#D5CEA3" fill-opacity="0.5"/>
<path d="M48.9801 281.75C48.9801 282.68 48.2201 283.44 47.2901 283.44C46.3601 283.44 45.6001 282.68 45.6001 281.75C45.6001 280.82 46.3601 280.06 47.2901 280.06C48.2201 280.07 48.9801 280.82 48.9801 281.75Z" fill="#D5CEA3" fill-opacity="0.5"/>
<path d="M64.18 281.75C64.18 282.68 63.4201 283.44 62.4901 283.44C61.5601 283.44 60.8 282.68 60.8 281.75C60.8 280.82 61.5601 280.06 62.4901 280.06C63.4201 280.07 64.18 280.82 64.18 281.75Z" fill="#D5CEA3" fill-opacity="0.5"/>
<path d="M77.69 283.44C78.6234 283.44 79.38 282.683 79.38 281.75C79.38 280.817 78.6234 280.06 77.69 280.06C76.7566 280.06 76 280.817 76 281.75C76 282.683 76.7566 283.44 77.69 283.44Z" fill="#D5CEA3" fill-opacity="0.5"/>
<path d="M92.8899 283.44C93.8233 283.44 94.5799 282.683 94.5799 281.75C94.5799 280.817 93.8233 280.06 92.8899 280.06C91.9566 280.06 91.2 280.817 91.2 281.75C91.2 282.683 91.9566 283.44 92.8899 283.44Z" fill="#D5CEA3" fill-opacity="0.5"/>
<path d="M108.09 283.44C109.023 283.44 109.78 282.683 109.78 281.75C109.78 280.817 109.023 280.06 108.09 280.06C107.157 280.06 106.4 280.817 106.4 281.75C106.4 282.683 107.157 283.44 108.09 283.44Z" fill="#D5CEA3" fill-opacity="0.5"/>
<path d="M123.29 283.44C124.223 283.44 124.98 282.683 124.98 281.75C124.98 280.817 124.223 280.06 123.29 280.06C122.357 280.06 121.6 280.817 121.6 281.75C121.6 282.683 122.357 283.44 123.29 283.44Z" fill="#D5CEA3" fill-opacity="0.5"/>
<path d="M138.49 283.44C139.423 283.44 140.18 282.683 140.18 281.75C140.18 280.817 139.423 280.06 138.49 280.06C137.557 280.06 136.8 280.817 136.8 281.75C136.8 282.683 137.557 283.44 138.49 283.44Z" fill="#D5CEA3" fill-opacity="0.5"/>
<path d="M153.69 283.44C154.623 283.44 155.38 282.683 155.38 281.75C155.38 280.817 154.623 280.06 153.69 280.06C152.757 280.06 152 280.817 152 281.75C152 282.683 152.757 283.44 153.69 283.44Z" fill="#D5CEA3" fill-opacity="0.5"/>
<path d="M3.38 295.27C3.38 296.2 2.62 296.96 1.69 296.96C0.759999 296.96 0 296.2 0 295.27C0 294.34 0.759999 293.58 1.69 293.58C2.62 293.58 3.38 294.33 3.38 295.27Z" fill="#D5CEA3" fill-opacity="0.5"/>
<path d="M18.5799 295.27C18.5799 296.2 17.8199 296.96 16.8899 296.96C15.9599 296.96 15.2 296.2 15.2 295.27C15.2 294.34 15.9599 293.58 16.8899 293.58C17.8199 293.58 18.5799 294.33 18.5799 295.27Z" fill="#D5CEA3" fill-opacity="0.5"/>
<path d="M33.7799 295.27C33.7799 296.2 33.0199 296.96 32.0899 296.96C31.1599 296.96 30.3999 296.2 30.3999 295.27C30.3999 294.34 31.1599 293.58 32.0899 293.58C33.0199 293.58 33.7799 294.33 33.7799 295.27Z" fill="#D5CEA3" fill-opacity="0.5"/>
<path d="M48.9801 295.27C48.9801 296.2 48.2201 296.96 47.2901 296.96C46.3601 296.96 45.6001 296.2 45.6001 295.27C45.6001 294.34 46.3601 293.58 47.2901 293.58C48.2201 293.58 48.9801 294.33 48.9801 295.27Z" fill="#D5CEA3" fill-opacity="0.5"/>
<path d="M64.18 295.27C64.18 296.2 63.4201 296.96 62.4901 296.96C61.5601 296.96 60.8 296.2 60.8 295.27C60.8 294.34 61.5601 293.58 62.4901 293.58C63.4201 293.58 64.18 294.33 64.18 295.27Z" fill="#D5CEA3" fill-opacity="0.5"/>
<path d="M79.38 295.27C79.38 296.2 78.62 296.96 77.69 296.96C76.76 296.96 76 296.2 76 295.27C76 294.34 76.76 293.58 77.69 293.58C78.62 293.58 79.38 294.33 79.38 295.27Z" fill="#D5CEA3" fill-opacity="0.5"/>
<path d="M94.5799 295.27C94.5799 296.2 93.8199 296.96 92.8899 296.96C91.9599 296.96 91.2 296.2 91.2 295.27C91.2 294.34 91.9599 293.58 92.8899 293.58C93.8199 293.58 94.5799 294.33 94.5799 295.27Z" fill="#D5CEA3" fill-opacity="0.5"/>
<path d="M109.78 295.27C109.78 296.2 109.02 296.96 108.09 296.96C107.16 296.96 106.4 296.2 106.4 295.27C106.4 294.34 107.16 293.58 108.09 293.58C109.02 293.58 109.78 294.33 109.78 295.27Z" fill="#D5CEA3" fill-opacity="0.5"/>
<path d="M124.98 295.27C124.98 296.2 124.22 296.96 123.29 296.96C122.36 296.96 121.6 296.2 121.6 295.27C121.6 294.34 122.36 293.58 123.29 293.58C124.22 293.58 124.98 294.33 124.98 295.27Z" fill="#D5CEA3" fill-opacity="0.5"/>
<path d="M140.18 295.27C140.18 296.2 139.42 296.96 138.49 296.96C137.56 296.96 136.8 296.2 136.8 295.27C136.8 294.34 137.56 293.58 138.49 293.58C139.42 293.58 140.18 294.33 140.18 295.27Z" fill="#D5CEA3" fill-opacity="0.5"/>
<path d="M155.38 295.27C155.38 296.2 154.62 296.96 153.69 296.96C152.76 296.96 152 296.2 152 295.27C152 294.34 152.76 293.58 153.69 293.58C154.62 293.58 155.38 294.33 155.38 295.27Z" fill="#D5CEA3" fill-opacity="0.5"/>
<path d="M3.38 308.78C3.38 309.71 2.62 310.47 1.69 310.47C0.759999 310.47 0 309.71 0 308.78C0 307.85 0.759999 307.09 1.69 307.09C2.62 307.09 3.38 307.84 3.38 308.78Z" fill="#D5CEA3" fill-opacity="0.5"/>
<path d="M18.5799 308.78C18.5799 309.71 17.8199 310.47 16.8899 310.47C15.9599 310.47 15.2 309.71 15.2 308.78C15.2 307.85 15.9599 307.09 16.8899 307.09C17.8199 307.09 18.5799 307.84 18.5799 308.78Z" fill="#D5CEA3" fill-opacity="0.5"/>
<path d="M33.7799 308.78C33.7799 309.71 33.0199 310.47 32.0899 310.47C31.1599 310.47 30.3999 309.71 30.3999 308.78C30.3999 307.85 31.1599 307.09 32.0899 307.09C33.0199 307.09 33.7799 307.84 33.7799 308.78Z" fill="#D5CEA3" fill-opacity="0.5"/>
<path d="M48.9801 308.78C48.9801 309.71 48.2201 310.47 47.2901 310.47C46.3601 310.47 45.6001 309.71 45.6001 308.78C45.6001 307.85 46.3601 307.09 47.2901 307.09C48.2201 307.09 48.9801 307.84 48.9801 308.78Z" fill="#D5CEA3" fill-opacity="0.5"/>
<path d="M64.18 308.78C64.18 309.71 63.4201 310.47 62.4901 310.47C61.5601 310.47 60.8 309.71 60.8 308.78C60.8 307.85 61.5601 307.09 62.4901 307.09C63.4201 307.09 64.18 307.84 64.18 308.78Z" fill="#D5CEA3" fill-opacity="0.5"/>
<path d="M79.38 308.78C79.38 309.71 78.62 310.47 77.69 310.47C76.76 310.47 76 309.71 76 308.78C76 307.85 76.76 307.09 77.69 307.09C78.62 307.09 79.38 307.84 79.38 308.78Z" fill="#D5CEA3" fill-opacity="0.5"/>
<path d="M94.5799 308.78C94.5799 309.71 93.8199 310.47 92.8899 310.47C91.9599 310.47 91.2 309.71 91.2 308.78C91.2 307.85 91.9599 307.09 92.8899 307.09C93.8199 307.09 94.5799 307.84 94.5799 308.78Z" fill="#D5CEA3" fill-opacity="0.5"/>
<path d="M109.78 308.78C109.78 309.71 109.02 310.47 108.09 310.47C107.16 310.47 106.4 309.71 106.4 308.78C106.4 307.85 107.16 307.09 108.09 307.09C109.02 307.09 109.78 307.84 109.78 308.78Z" fill="#D5CEA3" fill-opacity="0.5"/>
<path d="M124.98 308.78C124.98 309.71 124.22 310.47 123.29 310.47C122.36 310.47 121.6 309.71 121.6 308.78C121.6 307.85 122.36 307.09 123.29 307.09C124.22 307.09 124.98 307.84 124.98 308.78Z" fill="#D5CEA3" fill-opacity="0.5"/>
<path d="M140.18 308.78C140.18 309.71 139.42 310.47 138.49 310.47C137.56 310.47 136.8 309.71 136.8 308.78C136.8 307.85 137.56 307.09 138.49 307.09C139.42 307.09 140.18 307.84 140.18 308.78Z" fill="#D5CEA3" fill-opacity="0.5"/>
<path d="M155.38 308.78C155.38 309.71 154.62 310.47 153.69 310.47C152.76 310.47 152 309.71 152 308.78C152 307.85 152.76 307.09 153.69 307.09C154.62 307.09 155.38 307.84 155.38 308.78Z" fill="#D5CEA3" fill-opacity="0.5"/>
<path d="M3.38 322.29C3.38 323.22 2.62 323.98 1.69 323.98C0.759999 323.98 0 323.22 0 322.29C0 321.36 0.759999 320.6 1.69 320.6C2.62 320.6 3.38 321.36 3.38 322.29Z" fill="#D5CEA3" fill-opacity="0.5"/>
<path d="M18.5799 322.29C18.5799 323.22 17.8199 323.98 16.8899 323.98C15.9599 323.98 15.2 323.22 15.2 322.29C15.2 321.36 15.9599 320.6 16.8899 320.6C17.8199 320.6 18.5799 321.36 18.5799 322.29Z" fill="#D5CEA3" fill-opacity="0.5"/>
<path d="M33.7799 322.29C33.7799 323.22 33.0199 323.98 32.0899 323.98C31.1599 323.98 30.3999 323.22 30.3999 322.29C30.3999 321.36 31.1599 320.6 32.0899 320.6C33.0199 320.6 33.7799 321.36 33.7799 322.29Z" fill="#D5CEA3" fill-opacity="0.5"/>
<path d="M48.9801 322.29C48.9801 323.22 48.2201 323.98 47.2901 323.98C46.3601 323.98 45.6001 323.22 45.6001 322.29C45.6001 321.36 46.3601 320.6 47.2901 320.6C48.2201 320.6 48.9801 321.36 48.9801 322.29Z" fill="#D5CEA3" fill-opacity="0.5"/>
<path d="M64.18 322.29C64.18 323.22 63.4201 323.98 62.4901 323.98C61.5601 323.98 60.8 323.22 60.8 322.29C60.8 321.36 61.5601 320.6 62.4901 320.6C63.4201 320.6 64.18 321.36 64.18 322.29Z" fill="#D5CEA3" fill-opacity="0.5"/>
<path d="M79.38 322.29C79.38 323.22 78.62 323.98 77.69 323.98C76.76 323.98 76 323.22 76 322.29C76 321.36 76.76 320.6 77.69 320.6C78.62 320.6 79.38 321.36 79.38 322.29Z" fill="#D5CEA3" fill-opacity="0.5"/>
<path d="M94.5799 322.29C94.5799 323.22 93.8199 323.98 92.8899 323.98C91.9599 323.98 91.2 323.22 91.2 322.29C91.2 321.36 91.9599 320.6 92.8899 320.6C93.8199 320.6 94.5799 321.36 94.5799 322.29Z" fill="#D5CEA3" fill-opacity="0.5"/>
<path d="M109.78 322.29C109.78 323.22 109.02 323.98 108.09 323.98C107.16 323.98 106.4 323.22 106.4 322.29C106.4 321.36 107.16 320.6 108.09 320.6C109.02 320.6 109.78 321.36 109.78 322.29Z" fill="#D5CEA3" fill-opacity="0.5"/>
<path d="M124.98 322.29C124.98 323.22 124.22 323.98 123.29 323.98C122.36 323.98 121.6 323.22 121.6 322.29C121.6 321.36 122.36 320.6 123.29 320.6C124.22 320.6 124.98 321.36 124.98 322.29Z" fill="#D5CEA3" fill-opacity="0.5"/>
<path d="M140.18 322.29C140.18 323.22 139.42 323.98 138.49 323.98C137.56 323.98 136.8 323.22 136.8 322.29C136.8 321.36 137.56 320.6 138.49 320.6C139.42 320.6 140.18 321.36 140.18 322.29Z" fill="#D5CEA3" fill-opacity="0.5"/>
<path d="M155.38 322.29C155.38 323.22 154.62 323.98 153.69 323.98C152.76 323.98 152 323.22 152 322.29C152 321.36 152.76 320.6 153.69 320.6C154.62 320.6 155.38 321.36 155.38 322.29Z" fill="#D5CEA3" fill-opacity="0.5"/>
<path d="M1.69 337.49C2.62336 337.49 3.38 336.733 3.38 335.8C3.38 334.867 2.62336 334.11 1.69 334.11C0.756637 334.11 0 334.867 0 335.8C0 336.733 0.756637 337.49 1.69 337.49Z" fill="#D5CEA3" fill-opacity="0.5"/>
<path d="M16.8899 337.49C17.8233 337.49 18.5799 336.733 18.5799 335.8C18.5799 334.867 17.8233 334.11 16.8899 334.11C15.9566 334.11 15.2 334.867 15.2 335.8C15.2 336.733 15.9566 337.49 16.8899 337.49Z" fill="#D5CEA3" fill-opacity="0.5"/>
<path d="M32.0899 337.49C33.0233 337.49 33.7799 336.733 33.7799 335.8C33.7799 334.867 33.0233 334.11 32.0899 334.11C31.1565 334.11 30.3999 334.867 30.3999 335.8C30.3999 336.733 31.1565 337.49 32.0899 337.49Z" fill="#D5CEA3" fill-opacity="0.5"/>
<path d="M48.9801 335.8C48.9801 336.73 48.2201 337.49 47.2901 337.49C46.3601 337.49 45.6001 336.73 45.6001 335.8C45.6001 334.87 46.3601 334.11 47.2901 334.11C48.2201 334.11 48.9801 334.87 48.9801 335.8Z" fill="#D5CEA3" fill-opacity="0.5"/>
<path d="M64.18 335.8C64.18 336.73 63.4201 337.49 62.4901 337.49C61.5601 337.49 60.8 336.73 60.8 335.8C60.8 334.87 61.5601 334.11 62.4901 334.11C63.4201 334.11 64.18 334.87 64.18 335.8Z" fill="#D5CEA3" fill-opacity="0.5"/>
<path d="M77.69 337.49C78.6234 337.49 79.38 336.733 79.38 335.8C79.38 334.867 78.6234 334.11 77.69 334.11C76.7566 334.11 76 334.867 76 335.8C76 336.733 76.7566 337.49 77.69 337.49Z" fill="#D5CEA3" fill-opacity="0.5"/>
<path d="M92.8899 337.49C93.8233 337.49 94.5799 336.733 94.5799 335.8C94.5799 334.867 93.8233 334.11 92.8899 334.11C91.9566 334.11 91.2 334.867 91.2 335.8C91.2 336.733 91.9566 337.49 92.8899 337.49Z" fill="#D5CEA3" fill-opacity="0.5"/>
<path d="M108.09 337.49C109.023 337.49 109.78 336.733 109.78 335.8C109.78 334.867 109.023 334.11 108.09 334.11C107.157 334.11 106.4 334.867 106.4 335.8C106.4 336.733 107.157 337.49 108.09 337.49Z" fill="#D5CEA3" fill-opacity="0.5"/>
<path d="M123.29 337.49C124.223 337.49 124.98 336.733 124.98 335.8C124.98 334.867 124.223 334.11 123.29 334.11C122.357 334.11 121.6 334.867 121.6 335.8C121.6 336.733 122.357 337.49 123.29 337.49Z" fill="#D5CEA3" fill-opacity="0.5"/>
<path d="M138.49 337.49C139.423 337.49 140.18 336.733 140.18 335.8C140.18 334.867 139.423 334.11 138.49 334.11C137.557 334.11 136.8 334.867 136.8 335.8C136.8 336.733 137.557 337.49 138.49 337.49Z" fill="#D5CEA3" fill-opacity="0.5"/>
<path d="M153.69 337.49C154.623 337.49 155.38 336.733 155.38 335.8C155.38 334.867 154.623 334.11 153.69 334.11C152.757 334.11 152 334.867 152 335.8C152 336.733 152.757 337.49 153.69 337.49Z" fill="#D5CEA3" fill-opacity="0.5"/>
<path d="M3.38 349.31C3.38 350.24 2.62 351 1.69 351C0.759999 351 0 350.24 0 349.31C0 348.38 0.759999 347.62 1.69 347.62C2.62 347.62 3.38 348.38 3.38 349.31Z" fill="#D5CEA3" fill-opacity="0.5"/>
<path d="M18.5799 349.31C18.5799 350.24 17.8199 351 16.8899 351C15.9599 351 15.2 350.24 15.2 349.31C15.2 348.38 15.9599 347.62 16.8899 347.62C17.8199 347.62 18.5799 348.38 18.5799 349.31Z" fill="#D5CEA3" fill-opacity="0.5"/>
<path d="M33.7799 349.31C33.7799 350.24 33.0199 351 32.0899 351C31.1599 351 30.3999 350.24 30.3999 349.31C30.3999 348.38 31.1599 347.62 32.0899 347.62C33.0199 347.62 33.7799 348.38 33.7799 349.31Z" fill="#D5CEA3" fill-opacity="0.5"/>
<path d="M48.9801 349.31C48.9801 350.24 48.2201 351 47.2901 351C46.3601 351 45.6001 350.24 45.6001 349.31C45.6001 348.38 46.3601 347.62 47.2901 347.62C48.2201 347.62 48.9801 348.38 48.9801 349.31Z" fill="#D5CEA3" fill-opacity="0.5"/>
<path d="M64.18 349.31C64.18 350.24 63.4201 351 62.4901 351C61.5601 351 60.8 350.24 60.8 349.31C60.8 348.38 61.5601 347.62 62.4901 347.62C63.4201 347.62 64.18 348.38 64.18 349.31Z" fill="#D5CEA3" fill-opacity="0.5"/>
<path d="M79.38 349.31C79.38 350.24 78.62 351 77.69 351C76.76 351 76 350.24 76 349.31C76 348.38 76.76 347.62 77.69 347.62C78.62 347.62 79.38 348.38 79.38 349.31Z" fill="#D5CEA3" fill-opacity="0.5"/>
<path d="M94.5799 349.31C94.5799 350.24 93.8199 351 92.8899 351C91.9599 351 91.2 350.24 91.2 349.31C91.2 348.38 91.9599 347.62 92.8899 347.62C93.8199 347.62 94.5799 348.38 94.5799 349.31Z" fill="#D5CEA3" fill-opacity="0.5"/>
<path d="M109.78 349.31C109.78 350.24 109.02 351 108.09 351C107.16 351 106.4 350.24 106.4 349.31C106.4 348.38 107.16 347.62 108.09 347.62C109.02 347.62 109.78 348.38 109.78 349.31Z" fill="#D5CEA3" fill-opacity="0.5"/>
<path d="M124.98 349.31C124.98 350.24 124.22 351 123.29 351C122.36 351 121.6 350.24 121.6 349.31C121.6 348.38 122.36 347.62 123.29 347.62C124.22 347.62 124.98 348.38 124.98 349.31Z" fill="#D5CEA3" fill-opacity="0.5"/>
<path d="M140.18 349.31C140.18 350.24 139.42 351 138.49 351C137.56 351 136.8 350.24 136.8 349.31C136.8 348.38 137.56 347.62 138.49 347.62C139.42 347.62 140.18 348.38 140.18 349.31Z" fill="#D5CEA3" fill-opacity="0.5"/>
<path d="M155.38 349.31C155.38 350.24 154.62 351 153.69 351C152.76 351 152 350.24 152 349.31C152 348.38 152.76 347.62 153.69 347.62C154.62 347.62 155.38 348.38 155.38 349.31Z" fill="#D5CEA3" fill-opacity="0.5"/>
</svg>
