<svg width="2137" height="2296" viewBox="0 0 2137 2296" fill="none" xmlns="http://www.w3.org/2000/svg">
<path fill-rule="evenodd" clip-rule="evenodd" d="M538.284 1246.2C505.005 1109.58 658.263 999.605 684.18 861.393C711.859 713.792 604.876 543.695 692.842 421.981C781.904 298.752 960.93 247.582 1111.24 270.504C1252.78 292.089 1311.65 464.303 1435.99 535.311C1564.31 608.599 1755.28 566.79 1840.91 687.231C1928.09 809.861 1904.05 984.415 1856.86 1127.29C1812.31 1262.15 1691.19 1346.27 1590.22 1446.16C1481.24 1553.97 1397.37 1716.3 1244.94 1732.63C1092.3 1748.99 972.495 1612.96 846.043 1525.92C728.99 1445.35 571.914 1384.27 538.284 1246.2Z" fill="#3C2A21" fill-opacity="0.2"/>
<path d="M11.052 1324.08C17.1558 1324.08 22.104 1319.13 22.104 1313.03C22.104 1306.92 17.1558 1301.97 11.052 1301.97C4.94814 1301.97 0 1306.92 0 1313.03C0 1319.13 4.94814 1324.08 11.052 1324.08Z" fill="#3C2A21" fill-opacity="0.5"/>
<path d="M110.455 1324.08C116.558 1324.08 121.507 1319.13 121.507 1313.03C121.507 1306.92 116.558 1301.97 110.455 1301.97C104.351 1301.97 99.4026 1306.92 99.4026 1313.03C99.4026 1319.13 104.351 1324.08 110.455 1324.08Z" fill="#3C2A21" fill-opacity="0.5"/>
<path d="M209.856 1324.08C215.96 1324.08 220.908 1319.13 220.908 1313.03C220.908 1306.92 215.96 1301.97 209.856 1301.97C203.752 1301.97 198.804 1306.92 198.804 1313.03C198.804 1319.13 203.752 1324.08 209.856 1324.08Z" fill="#3C2A21" fill-opacity="0.5"/>
<path d="M320.313 1313.03C320.313 1319.11 315.343 1324.08 309.261 1324.08C303.179 1324.08 298.209 1319.11 298.209 1313.03C298.209 1306.94 303.179 1301.97 309.261 1301.97C315.343 1301.97 320.313 1306.94 320.313 1313.03Z" fill="#3C2A21" fill-opacity="0.5"/>
<path d="M419.714 1313.03C419.714 1319.11 414.744 1324.08 408.662 1324.08C402.58 1324.08 397.61 1319.11 397.61 1313.03C397.61 1306.94 402.58 1301.97 408.662 1301.97C414.744 1301.97 419.714 1306.94 419.714 1313.03Z" fill="#3C2A21" fill-opacity="0.5"/>
<path d="M508.065 1324.08C514.169 1324.08 519.117 1319.13 519.117 1313.03C519.117 1306.92 514.169 1301.97 508.065 1301.97C501.961 1301.97 497.013 1306.92 497.013 1313.03C497.013 1319.13 501.961 1324.08 508.065 1324.08Z" fill="#3C2A21" fill-opacity="0.5"/>
<path d="M607.467 1324.08C613.571 1324.08 618.52 1319.13 618.52 1313.03C618.52 1306.92 613.571 1301.97 607.467 1301.97C601.364 1301.97 596.416 1306.92 596.416 1313.03C596.416 1319.13 601.364 1324.08 607.467 1324.08Z" fill="#3C2A21" fill-opacity="0.5"/>
<path d="M706.87 1324.08C712.974 1324.08 717.922 1319.13 717.922 1313.03C717.922 1306.92 712.974 1301.97 706.87 1301.97C700.766 1301.97 695.818 1306.92 695.818 1313.03C695.818 1319.13 700.766 1324.08 706.87 1324.08Z" fill="#3C2A21" fill-opacity="0.5"/>
<path d="M806.274 1324.08C812.378 1324.08 817.326 1319.13 817.326 1313.03C817.326 1306.92 812.378 1301.97 806.274 1301.97C800.17 1301.97 795.222 1306.92 795.222 1313.03C795.222 1319.13 800.17 1324.08 806.274 1324.08Z" fill="#3C2A21" fill-opacity="0.5"/>
<path d="M905.675 1324.08C911.779 1324.08 916.727 1319.13 916.727 1313.03C916.727 1306.92 911.779 1301.97 905.675 1301.97C899.571 1301.97 894.623 1306.92 894.623 1313.03C894.623 1319.13 899.571 1324.08 905.675 1324.08Z" fill="#3C2A21" fill-opacity="0.5"/>
<path d="M1005.08 1324.08C1011.18 1324.08 1016.13 1319.13 1016.13 1313.03C1016.13 1306.92 1011.18 1301.97 1005.08 1301.97C998.974 1301.97 994.026 1306.92 994.026 1313.03C994.026 1319.13 998.974 1324.08 1005.08 1324.08Z" fill="#3C2A21" fill-opacity="0.5"/>
<path d="M11.052 1412.43C17.1558 1412.43 22.104 1407.48 22.104 1401.38C22.104 1395.27 17.1558 1390.32 11.052 1390.32C4.94814 1390.32 0 1395.27 0 1401.38C0 1407.48 4.94814 1412.43 11.052 1412.43Z" fill="#3C2A21" fill-opacity="0.5"/>
<path d="M110.455 1412.43C116.558 1412.43 121.507 1407.48 121.507 1401.38C121.507 1395.27 116.558 1390.32 110.455 1390.32C104.351 1390.32 99.4026 1395.27 99.4026 1401.38C99.4026 1407.48 104.351 1412.43 110.455 1412.43Z" fill="#3C2A21" fill-opacity="0.5"/>
<path d="M209.856 1412.43C215.96 1412.43 220.908 1407.48 220.908 1401.38C220.908 1395.27 215.96 1390.32 209.856 1390.32C203.752 1390.32 198.804 1395.27 198.804 1401.38C198.804 1407.48 203.752 1412.43 209.856 1412.43Z" fill="#3C2A21" fill-opacity="0.5"/>
<path d="M320.313 1401.38C320.313 1407.46 315.343 1412.43 309.261 1412.43C303.179 1412.43 298.209 1407.46 298.209 1401.38C298.209 1395.29 303.179 1390.32 309.261 1390.32C315.343 1390.32 320.313 1395.29 320.313 1401.38Z" fill="#3C2A21" fill-opacity="0.5"/>
<path d="M419.714 1401.38C419.714 1407.46 414.744 1412.43 408.662 1412.43C402.58 1412.43 397.61 1407.46 397.61 1401.38C397.61 1395.29 402.58 1390.32 408.662 1390.32C414.744 1390.32 419.714 1395.29 419.714 1401.38Z" fill="#3C2A21" fill-opacity="0.5"/>
<path d="M508.065 1412.43C514.169 1412.43 519.117 1407.48 519.117 1401.38C519.117 1395.27 514.169 1390.32 508.065 1390.32C501.961 1390.32 497.013 1395.27 497.013 1401.38C497.013 1407.48 501.961 1412.43 508.065 1412.43Z" fill="#3C2A21" fill-opacity="0.5"/>
<path d="M607.467 1412.43C613.571 1412.43 618.52 1407.48 618.52 1401.38C618.52 1395.27 613.571 1390.32 607.467 1390.32C601.364 1390.32 596.416 1395.27 596.416 1401.38C596.416 1407.48 601.364 1412.43 607.467 1412.43Z" fill="#3C2A21" fill-opacity="0.5"/>
<path d="M706.87 1412.43C712.974 1412.43 717.922 1407.48 717.922 1401.38C717.922 1395.27 712.974 1390.32 706.87 1390.32C700.766 1390.32 695.818 1395.27 695.818 1401.38C695.818 1407.48 700.766 1412.43 706.87 1412.43Z" fill="#3C2A21" fill-opacity="0.5"/>
<path d="M806.274 1412.43C812.378 1412.43 817.326 1407.48 817.326 1401.38C817.326 1395.27 812.378 1390.32 806.274 1390.32C800.17 1390.32 795.222 1395.27 795.222 1401.38C795.222 1407.48 800.17 1412.43 806.274 1412.43Z" fill="#3C2A21" fill-opacity="0.5"/>
<path d="M905.675 1412.43C911.779 1412.43 916.727 1407.48 916.727 1401.38C916.727 1395.27 911.779 1390.32 905.675 1390.32C899.571 1390.32 894.623 1395.27 894.623 1401.38C894.623 1407.48 899.571 1412.43 905.675 1412.43Z" fill="#3C2A21" fill-opacity="0.5"/>
<path d="M1005.08 1412.43C1011.18 1412.43 1016.13 1407.48 1016.13 1401.38C1016.13 1395.27 1011.18 1390.32 1005.08 1390.32C998.974 1390.32 994.026 1395.27 994.026 1401.38C994.026 1407.48 998.974 1412.43 1005.08 1412.43Z" fill="#3C2A21" fill-opacity="0.5"/>
<path d="M11.052 1500.78C17.1558 1500.78 22.104 1495.83 22.104 1489.73C22.104 1483.62 17.1558 1478.68 11.052 1478.68C4.94814 1478.68 0 1483.62 0 1489.73C0 1495.83 4.94814 1500.78 11.052 1500.78Z" fill="#3C2A21" fill-opacity="0.5"/>
<path d="M110.455 1500.78C116.558 1500.78 121.507 1495.83 121.507 1489.73C121.507 1483.62 116.558 1478.68 110.455 1478.68C104.351 1478.68 99.4026 1483.62 99.4026 1489.73C99.4026 1495.83 104.351 1500.78 110.455 1500.78Z" fill="#3C2A21" fill-opacity="0.5"/>
<path d="M209.856 1500.78C215.96 1500.78 220.908 1495.83 220.908 1489.73C220.908 1483.62 215.96 1478.68 209.856 1478.68C203.752 1478.68 198.804 1483.62 198.804 1489.73C198.804 1495.83 203.752 1500.78 209.856 1500.78Z" fill="#3C2A21" fill-opacity="0.5"/>
<path d="M320.313 1489.73C320.313 1495.81 315.343 1500.78 309.261 1500.78C303.179 1500.78 298.209 1495.81 298.209 1489.73C298.209 1483.65 303.179 1478.68 309.261 1478.68C315.343 1478.68 320.313 1483.65 320.313 1489.73Z" fill="#3C2A21" fill-opacity="0.5"/>
<path d="M419.714 1489.73C419.714 1495.81 414.744 1500.78 408.662 1500.78C402.58 1500.78 397.61 1495.81 397.61 1489.73C397.61 1483.65 402.58 1478.68 408.662 1478.68C414.744 1478.68 419.714 1483.65 419.714 1489.73Z" fill="#3C2A21" fill-opacity="0.5"/>
<path d="M508.065 1500.78C514.169 1500.78 519.117 1495.83 519.117 1489.73C519.117 1483.62 514.169 1478.68 508.065 1478.68C501.961 1478.68 497.013 1483.62 497.013 1489.73C497.013 1495.83 501.961 1500.78 508.065 1500.78Z" fill="#3C2A21" fill-opacity="0.5"/>
<path d="M607.467 1500.78C613.571 1500.78 618.52 1495.83 618.52 1489.73C618.52 1483.62 613.571 1478.68 607.467 1478.68C601.364 1478.68 596.416 1483.62 596.416 1489.73C596.416 1495.83 601.364 1500.78 607.467 1500.78Z" fill="#3C2A21" fill-opacity="0.5"/>
<path d="M706.87 1500.78C712.974 1500.78 717.922 1495.83 717.922 1489.73C717.922 1483.62 712.974 1478.68 706.87 1478.68C700.766 1478.68 695.818 1483.62 695.818 1489.73C695.818 1495.83 700.766 1500.78 706.87 1500.78Z" fill="#3C2A21" fill-opacity="0.5"/>
<path d="M806.274 1500.78C812.378 1500.78 817.326 1495.83 817.326 1489.73C817.326 1483.62 812.378 1478.68 806.274 1478.68C800.17 1478.68 795.222 1483.62 795.222 1489.73C795.222 1495.83 800.17 1500.78 806.274 1500.78Z" fill="#3C2A21" fill-opacity="0.5"/>
<path d="M905.675 1500.78C911.779 1500.78 916.727 1495.83 916.727 1489.73C916.727 1483.62 911.779 1478.68 905.675 1478.68C899.571 1478.68 894.623 1483.62 894.623 1489.73C894.623 1495.83 899.571 1500.78 905.675 1500.78Z" fill="#3C2A21" fill-opacity="0.5"/>
<path d="M1005.08 1500.78C1011.18 1500.78 1016.13 1495.83 1016.13 1489.73C1016.13 1483.62 1011.18 1478.68 1005.08 1478.68C998.974 1478.68 994.026 1483.62 994.026 1489.73C994.026 1495.83 998.974 1500.78 1005.08 1500.78Z" fill="#3C2A21" fill-opacity="0.5"/>
<path d="M22.104 1578.08C22.104 1584.16 17.1339 1589.13 11.052 1589.13C4.97012 1589.13 0 1584.16 0 1578.08C0 1572 4.97012 1567.03 11.052 1567.03C17.1339 1567.03 22.104 1572 22.104 1578.08Z" fill="#3C2A21" fill-opacity="0.5"/>
<path d="M121.507 1578.08C121.507 1584.16 116.536 1589.13 110.455 1589.13C104.373 1589.13 99.4026 1584.16 99.4026 1578.08C99.4026 1572 104.373 1567.03 110.455 1567.03C116.536 1567.03 121.507 1572 121.507 1578.08Z" fill="#3C2A21" fill-opacity="0.5"/>
<path d="M220.908 1578.08C220.908 1584.16 215.938 1589.13 209.856 1589.13C203.774 1589.13 198.804 1584.16 198.804 1578.08C198.804 1572 203.774 1567.03 209.856 1567.03C215.938 1567.03 220.908 1572 220.908 1578.08Z" fill="#3C2A21" fill-opacity="0.5"/>
<path d="M320.313 1578.08C320.313 1584.16 315.343 1589.13 309.261 1589.13C303.179 1589.13 298.209 1584.16 298.209 1578.08C298.209 1572 303.179 1567.03 309.261 1567.03C315.343 1567.03 320.313 1572 320.313 1578.08Z" fill="#3C2A21" fill-opacity="0.5"/>
<path d="M419.714 1578.08C419.714 1584.16 414.744 1589.13 408.662 1589.13C402.58 1589.13 397.61 1584.16 397.61 1578.08C397.61 1572 402.58 1567.03 408.662 1567.03C414.744 1567.03 419.714 1572 419.714 1578.08Z" fill="#3C2A21" fill-opacity="0.5"/>
<path d="M519.117 1578.08C519.117 1584.16 514.147 1589.13 508.065 1589.13C501.983 1589.13 497.013 1584.16 497.013 1578.08C497.013 1572 501.983 1567.03 508.065 1567.03C514.147 1567.03 519.117 1572 519.117 1578.08Z" fill="#3C2A21" fill-opacity="0.5"/>
<path d="M618.52 1578.08C618.52 1584.16 613.549 1589.13 607.467 1589.13C601.386 1589.13 596.416 1584.16 596.416 1578.08C596.416 1572 601.386 1567.03 607.467 1567.03C613.549 1567.03 618.52 1572 618.52 1578.08Z" fill="#3C2A21" fill-opacity="0.5"/>
<path d="M717.922 1578.08C717.922 1584.16 712.952 1589.13 706.87 1589.13C700.788 1589.13 695.818 1584.16 695.818 1578.08C695.818 1572 700.788 1567.03 706.87 1567.03C712.952 1567.03 717.922 1572 717.922 1578.08Z" fill="#3C2A21" fill-opacity="0.5"/>
<path d="M817.326 1578.08C817.326 1584.16 812.356 1589.13 806.274 1589.13C800.192 1589.13 795.222 1584.16 795.222 1578.08C795.222 1572 800.192 1567.03 806.274 1567.03C812.356 1567.03 817.326 1572 817.326 1578.08Z" fill="#3C2A21" fill-opacity="0.5"/>
<path d="M916.727 1578.08C916.727 1584.16 911.757 1589.13 905.675 1589.13C899.593 1589.13 894.623 1584.16 894.623 1578.08C894.623 1572 899.593 1567.03 905.675 1567.03C911.757 1567.03 916.727 1572 916.727 1578.08Z" fill="#3C2A21" fill-opacity="0.5"/>
<path d="M1016.13 1578.08C1016.13 1584.16 1011.16 1589.13 1005.08 1589.13C998.996 1589.13 994.026 1584.16 994.026 1578.08C994.026 1572 998.996 1567.03 1005.08 1567.03C1011.16 1567.03 1016.13 1572 1016.13 1578.08Z" fill="#3C2A21" fill-opacity="0.5"/>
<path d="M22.104 1666.43C22.104 1672.51 17.1339 1677.48 11.052 1677.48C4.97012 1677.48 0 1672.51 0 1666.43C0 1660.35 4.97012 1655.38 11.052 1655.38C17.1339 1655.38 22.104 1660.35 22.104 1666.43Z" fill="#3C2A21" fill-opacity="0.5"/>
<path d="M121.507 1666.43C121.507 1672.51 116.536 1677.48 110.455 1677.48C104.373 1677.48 99.4026 1672.51 99.4026 1666.43C99.4026 1660.35 104.373 1655.38 110.455 1655.38C116.536 1655.38 121.507 1660.35 121.507 1666.43Z" fill="#3C2A21" fill-opacity="0.5"/>
<path d="M220.908 1666.43C220.908 1672.51 215.938 1677.48 209.856 1677.48C203.774 1677.48 198.804 1672.51 198.804 1666.43C198.804 1660.35 203.774 1655.38 209.856 1655.38C215.938 1655.38 220.908 1660.35 220.908 1666.43Z" fill="#3C2A21" fill-opacity="0.5"/>
<path d="M320.313 1666.43C320.313 1672.51 315.343 1677.48 309.261 1677.48C303.179 1677.48 298.209 1672.51 298.209 1666.43C298.209 1660.35 303.179 1655.38 309.261 1655.38C315.343 1655.38 320.313 1660.35 320.313 1666.43Z" fill="#3C2A21" fill-opacity="0.5"/>
<path d="M419.714 1666.43C419.714 1672.51 414.744 1677.48 408.662 1677.48C402.58 1677.48 397.61 1672.51 397.61 1666.43C397.61 1660.35 402.58 1655.38 408.662 1655.38C414.744 1655.38 419.714 1660.35 419.714 1666.43Z" fill="#3C2A21" fill-opacity="0.5"/>
<path d="M519.117 1666.43C519.117 1672.51 514.147 1677.48 508.065 1677.48C501.983 1677.48 497.013 1672.51 497.013 1666.43C497.013 1660.35 501.983 1655.38 508.065 1655.38C514.147 1655.38 519.117 1660.35 519.117 1666.43Z" fill="#3C2A21" fill-opacity="0.5"/>
<path d="M618.52 1666.43C618.52 1672.51 613.549 1677.48 607.467 1677.48C601.386 1677.48 596.416 1672.51 596.416 1666.43C596.416 1660.35 601.386 1655.38 607.467 1655.38C613.549 1655.38 618.52 1660.35 618.52 1666.43Z" fill="#3C2A21" fill-opacity="0.5"/>
<path d="M717.922 1666.43C717.922 1672.51 712.952 1677.48 706.87 1677.48C700.788 1677.48 695.818 1672.51 695.818 1666.43C695.818 1660.35 700.788 1655.38 706.87 1655.38C712.952 1655.38 717.922 1660.35 717.922 1666.43Z" fill="#3C2A21" fill-opacity="0.5"/>
<path d="M817.326 1666.43C817.326 1672.51 812.356 1677.48 806.274 1677.48C800.192 1677.48 795.222 1672.51 795.222 1666.43C795.222 1660.35 800.192 1655.38 806.274 1655.38C812.356 1655.38 817.326 1660.35 817.326 1666.43Z" fill="#3C2A21" fill-opacity="0.5"/>
<path d="M916.727 1666.43C916.727 1672.51 911.757 1677.48 905.675 1677.48C899.593 1677.48 894.623 1672.51 894.623 1666.43C894.623 1660.35 899.593 1655.38 905.675 1655.38C911.757 1655.38 916.727 1660.35 916.727 1666.43Z" fill="#3C2A21" fill-opacity="0.5"/>
<path d="M1016.13 1666.43C1016.13 1672.51 1011.16 1677.48 1005.08 1677.48C998.996 1677.48 994.026 1672.51 994.026 1666.43C994.026 1660.35 998.996 1655.38 1005.08 1655.38C1011.16 1655.38 1016.13 1660.35 1016.13 1666.43Z" fill="#3C2A21" fill-opacity="0.5"/>
<path d="M22.104 1754.78C22.104 1760.86 17.1339 1765.83 11.052 1765.83C4.97012 1765.83 0 1760.86 0 1754.78C0 1748.7 4.97012 1743.73 11.052 1743.73C17.1339 1743.73 22.104 1748.7 22.104 1754.78Z" fill="#3C2A21" fill-opacity="0.5"/>
<path d="M121.507 1754.78C121.507 1760.86 116.536 1765.83 110.455 1765.83C104.373 1765.83 99.4026 1760.86 99.4026 1754.78C99.4026 1748.7 104.373 1743.73 110.455 1743.73C116.536 1743.73 121.507 1748.7 121.507 1754.78Z" fill="#3C2A21" fill-opacity="0.5"/>
<path d="M220.908 1754.78C220.908 1760.86 215.938 1765.83 209.856 1765.83C203.774 1765.83 198.804 1760.86 198.804 1754.78C198.804 1748.7 203.774 1743.73 209.856 1743.73C215.938 1743.73 220.908 1748.7 220.908 1754.78Z" fill="#3C2A21" fill-opacity="0.5"/>
<path d="M320.313 1754.78C320.313 1760.86 315.343 1765.83 309.261 1765.83C303.179 1765.83 298.209 1760.86 298.209 1754.78C298.209 1748.7 303.179 1743.73 309.261 1743.73C315.343 1743.73 320.313 1748.7 320.313 1754.78Z" fill="#3C2A21" fill-opacity="0.5"/>
<path d="M419.714 1754.78C419.714 1760.86 414.744 1765.83 408.662 1765.83C402.58 1765.83 397.61 1760.86 397.61 1754.78C397.61 1748.7 402.58 1743.73 408.662 1743.73C414.744 1743.73 419.714 1748.7 419.714 1754.78Z" fill="#3C2A21" fill-opacity="0.5"/>
<path d="M519.117 1754.78C519.117 1760.86 514.147 1765.83 508.065 1765.83C501.983 1765.83 497.013 1760.86 497.013 1754.78C497.013 1748.7 501.983 1743.73 508.065 1743.73C514.147 1743.73 519.117 1748.7 519.117 1754.78Z" fill="#3C2A21" fill-opacity="0.5"/>
<path d="M618.52 1754.78C618.52 1760.86 613.549 1765.83 607.467 1765.83C601.386 1765.83 596.416 1760.86 596.416 1754.78C596.416 1748.7 601.386 1743.73 607.467 1743.73C613.549 1743.73 618.52 1748.7 618.52 1754.78Z" fill="#3C2A21" fill-opacity="0.5"/>
<path d="M717.922 1754.78C717.922 1760.86 712.952 1765.83 706.87 1765.83C700.788 1765.83 695.818 1760.86 695.818 1754.78C695.818 1748.7 700.788 1743.73 706.87 1743.73C712.952 1743.73 717.922 1748.7 717.922 1754.78Z" fill="#3C2A21" fill-opacity="0.5"/>
<path d="M817.326 1754.78C817.326 1760.86 812.356 1765.83 806.274 1765.83C800.192 1765.83 795.222 1760.86 795.222 1754.78C795.222 1748.7 800.192 1743.73 806.274 1743.73C812.356 1743.73 817.326 1748.7 817.326 1754.78Z" fill="#3C2A21" fill-opacity="0.5"/>
<path d="M916.727 1754.78C916.727 1760.86 911.757 1765.83 905.675 1765.83C899.593 1765.83 894.623 1760.86 894.623 1754.78C894.623 1748.7 899.593 1743.73 905.675 1743.73C911.757 1743.73 916.727 1748.7 916.727 1754.78Z" fill="#3C2A21" fill-opacity="0.5"/>
<path d="M1016.13 1754.78C1016.13 1760.86 1011.16 1765.83 1005.08 1765.83C998.996 1765.83 994.026 1760.86 994.026 1754.78C994.026 1748.7 998.996 1743.73 1005.08 1743.73C1011.16 1743.73 1016.13 1748.7 1016.13 1754.78Z" fill="#3C2A21" fill-opacity="0.5"/>
<path d="M11.052 1854.18C17.1558 1854.18 22.104 1849.23 22.104 1843.13C22.104 1837.03 17.1558 1832.08 11.052 1832.08C4.94814 1832.08 0 1837.03 0 1843.13C0 1849.23 4.94814 1854.18 11.052 1854.18Z" fill="#3C2A21" fill-opacity="0.5"/>
<path d="M110.455 1854.18C116.558 1854.18 121.507 1849.23 121.507 1843.13C121.507 1837.03 116.558 1832.08 110.455 1832.08C104.351 1832.08 99.4026 1837.03 99.4026 1843.13C99.4026 1849.23 104.351 1854.18 110.455 1854.18Z" fill="#3C2A21" fill-opacity="0.5"/>
<path d="M209.856 1854.18C215.96 1854.18 220.908 1849.23 220.908 1843.13C220.908 1837.03 215.96 1832.08 209.856 1832.08C203.752 1832.08 198.804 1837.03 198.804 1843.13C198.804 1849.23 203.752 1854.18 209.856 1854.18Z" fill="#3C2A21" fill-opacity="0.5"/>
<path d="M320.313 1843.13C320.313 1849.21 315.343 1854.18 309.261 1854.18C303.179 1854.18 298.209 1849.21 298.209 1843.13C298.209 1837.05 303.179 1832.08 309.261 1832.08C315.343 1832.14 320.313 1837.05 320.313 1843.13Z" fill="#3C2A21" fill-opacity="0.5"/>
<path d="M419.714 1843.13C419.714 1849.21 414.744 1854.18 408.662 1854.18C402.58 1854.18 397.61 1849.21 397.61 1843.13C397.61 1837.05 402.58 1832.08 408.662 1832.08C414.744 1832.14 419.714 1837.05 419.714 1843.13Z" fill="#3C2A21" fill-opacity="0.5"/>
<path d="M508.065 1854.18C514.169 1854.18 519.117 1849.23 519.117 1843.13C519.117 1837.03 514.169 1832.08 508.065 1832.08C501.961 1832.08 497.013 1837.03 497.013 1843.13C497.013 1849.23 501.961 1854.18 508.065 1854.18Z" fill="#3C2A21" fill-opacity="0.5"/>
<path d="M607.467 1854.18C613.571 1854.18 618.52 1849.23 618.52 1843.13C618.52 1837.03 613.571 1832.08 607.467 1832.08C601.364 1832.08 596.416 1837.03 596.416 1843.13C596.416 1849.23 601.364 1854.18 607.467 1854.18Z" fill="#3C2A21" fill-opacity="0.5"/>
<path d="M706.87 1854.18C712.974 1854.18 717.922 1849.23 717.922 1843.13C717.922 1837.03 712.974 1832.08 706.87 1832.08C700.766 1832.08 695.818 1837.03 695.818 1843.13C695.818 1849.23 700.766 1854.18 706.87 1854.18Z" fill="#3C2A21" fill-opacity="0.5"/>
<path d="M806.274 1854.18C812.378 1854.18 817.326 1849.23 817.326 1843.13C817.326 1837.03 812.378 1832.08 806.274 1832.08C800.17 1832.08 795.222 1837.03 795.222 1843.13C795.222 1849.23 800.17 1854.18 806.274 1854.18Z" fill="#3C2A21" fill-opacity="0.5"/>
<path d="M905.675 1854.18C911.779 1854.18 916.727 1849.23 916.727 1843.13C916.727 1837.03 911.779 1832.08 905.675 1832.08C899.571 1832.08 894.623 1837.03 894.623 1843.13C894.623 1849.23 899.571 1854.18 905.675 1854.18Z" fill="#3C2A21" fill-opacity="0.5"/>
<path d="M1005.08 1854.18C1011.18 1854.18 1016.13 1849.23 1016.13 1843.13C1016.13 1837.03 1011.18 1832.08 1005.08 1832.08C998.974 1832.08 994.026 1837.03 994.026 1843.13C994.026 1849.23 998.974 1854.18 1005.08 1854.18Z" fill="#3C2A21" fill-opacity="0.5"/>
<path d="M22.104 1931.55C22.104 1937.63 17.1339 1942.6 11.052 1942.6C4.97012 1942.6 0 1937.63 0 1931.55C0 1925.46 4.97012 1920.49 11.052 1920.49C17.1339 1920.49 22.104 1925.4 22.104 1931.55Z" fill="#3C2A21" fill-opacity="0.5"/>
<path d="M121.507 1931.55C121.507 1937.63 116.536 1942.6 110.455 1942.6C104.373 1942.6 99.4026 1937.63 99.4026 1931.55C99.4026 1925.46 104.373 1920.49 110.455 1920.49C116.536 1920.49 121.507 1925.4 121.507 1931.55Z" fill="#3C2A21" fill-opacity="0.5"/>
<path d="M220.908 1931.55C220.908 1937.63 215.938 1942.6 209.856 1942.6C203.774 1942.6 198.804 1937.63 198.804 1931.55C198.804 1925.46 203.774 1920.49 209.856 1920.49C215.938 1920.49 220.908 1925.4 220.908 1931.55Z" fill="#3C2A21" fill-opacity="0.5"/>
<path d="M320.313 1931.55C320.313 1937.63 315.343 1942.6 309.261 1942.6C303.179 1942.6 298.209 1937.63 298.209 1931.55C298.209 1925.46 303.179 1920.49 309.261 1920.49C315.343 1920.49 320.313 1925.4 320.313 1931.55Z" fill="#3C2A21" fill-opacity="0.5"/>
<path d="M419.714 1931.55C419.714 1937.63 414.744 1942.6 408.662 1942.6C402.58 1942.6 397.61 1937.63 397.61 1931.55C397.61 1925.46 402.58 1920.49 408.662 1920.49C414.744 1920.49 419.714 1925.4 419.714 1931.55Z" fill="#3C2A21" fill-opacity="0.5"/>
<path d="M519.117 1931.55C519.117 1937.63 514.147 1942.6 508.065 1942.6C501.983 1942.6 497.013 1937.63 497.013 1931.55C497.013 1925.46 501.983 1920.49 508.065 1920.49C514.147 1920.49 519.117 1925.4 519.117 1931.55Z" fill="#3C2A21" fill-opacity="0.5"/>
<path d="M618.52 1931.55C618.52 1937.63 613.549 1942.6 607.467 1942.6C601.386 1942.6 596.416 1937.63 596.416 1931.55C596.416 1925.46 601.386 1920.49 607.467 1920.49C613.549 1920.49 618.52 1925.4 618.52 1931.55Z" fill="#3C2A21" fill-opacity="0.5"/>
<path d="M717.922 1931.55C717.922 1937.63 712.952 1942.6 706.87 1942.6C700.788 1942.6 695.818 1937.63 695.818 1931.55C695.818 1925.46 700.788 1920.49 706.87 1920.49C712.952 1920.49 717.922 1925.4 717.922 1931.55Z" fill="#3C2A21" fill-opacity="0.5"/>
<path d="M817.326 1931.55C817.326 1937.63 812.356 1942.6 806.274 1942.6C800.192 1942.6 795.222 1937.63 795.222 1931.55C795.222 1925.46 800.192 1920.49 806.274 1920.49C812.356 1920.49 817.326 1925.4 817.326 1931.55Z" fill="#3C2A21" fill-opacity="0.5"/>
<path d="M916.727 1931.55C916.727 1937.63 911.757 1942.6 905.675 1942.6C899.593 1942.6 894.623 1937.63 894.623 1931.55C894.623 1925.46 899.593 1920.49 905.675 1920.49C911.757 1920.49 916.727 1925.4 916.727 1931.55Z" fill="#3C2A21" fill-opacity="0.5"/>
<path d="M1016.13 1931.55C1016.13 1937.63 1011.16 1942.6 1005.08 1942.6C998.996 1942.6 994.026 1937.63 994.026 1931.55C994.026 1925.46 998.996 1920.49 1005.08 1920.49C1011.16 1920.49 1016.13 1925.4 1016.13 1931.55Z" fill="#3C2A21" fill-opacity="0.5"/>
<path d="M22.104 2019.9C22.104 2025.98 17.1339 2030.95 11.052 2030.95C4.97012 2030.95 0 2025.98 0 2019.9C0 2013.81 4.97012 2008.84 11.052 2008.84C17.1339 2008.84 22.104 2013.75 22.104 2019.9Z" fill="#3C2A21" fill-opacity="0.5"/>
<path d="M121.507 2019.9C121.507 2025.98 116.536 2030.95 110.455 2030.95C104.373 2030.95 99.4026 2025.98 99.4026 2019.9C99.4026 2013.81 104.373 2008.84 110.455 2008.84C116.536 2008.84 121.507 2013.75 121.507 2019.9Z" fill="#3C2A21" fill-opacity="0.5"/>
<path d="M220.908 2019.9C220.908 2025.98 215.938 2030.95 209.856 2030.95C203.774 2030.95 198.804 2025.98 198.804 2019.9C198.804 2013.81 203.774 2008.84 209.856 2008.84C215.938 2008.84 220.908 2013.75 220.908 2019.9Z" fill="#3C2A21" fill-opacity="0.5"/>
<path d="M320.313 2019.9C320.313 2025.98 315.343 2030.95 309.261 2030.95C303.179 2030.95 298.209 2025.98 298.209 2019.9C298.209 2013.81 303.179 2008.84 309.261 2008.84C315.343 2008.84 320.313 2013.75 320.313 2019.9Z" fill="#3C2A21" fill-opacity="0.5"/>
<path d="M419.714 2019.9C419.714 2025.98 414.744 2030.95 408.662 2030.95C402.58 2030.95 397.61 2025.98 397.61 2019.9C397.61 2013.81 402.58 2008.84 408.662 2008.84C414.744 2008.84 419.714 2013.75 419.714 2019.9Z" fill="#3C2A21" fill-opacity="0.5"/>
<path d="M519.117 2019.9C519.117 2025.98 514.147 2030.95 508.065 2030.95C501.983 2030.95 497.013 2025.98 497.013 2019.9C497.013 2013.81 501.983 2008.84 508.065 2008.84C514.147 2008.84 519.117 2013.75 519.117 2019.9Z" fill="#3C2A21" fill-opacity="0.5"/>
<path d="M618.52 2019.9C618.52 2025.98 613.549 2030.95 607.467 2030.95C601.386 2030.95 596.416 2025.98 596.416 2019.9C596.416 2013.81 601.386 2008.84 607.467 2008.84C613.549 2008.84 618.52 2013.75 618.52 2019.9Z" fill="#3C2A21" fill-opacity="0.5"/>
<path d="M717.922 2019.9C717.922 2025.98 712.952 2030.95 706.87 2030.95C700.788 2030.95 695.818 2025.98 695.818 2019.9C695.818 2013.81 700.788 2008.84 706.87 2008.84C712.952 2008.84 717.922 2013.75 717.922 2019.9Z" fill="#3C2A21" fill-opacity="0.5"/>
<path d="M817.326 2019.9C817.326 2025.98 812.356 2030.95 806.274 2030.95C800.192 2030.95 795.222 2025.98 795.222 2019.9C795.222 2013.81 800.192 2008.84 806.274 2008.84C812.356 2008.84 817.326 2013.75 817.326 2019.9Z" fill="#3C2A21" fill-opacity="0.5"/>
<path d="M916.727 2019.9C916.727 2025.98 911.757 2030.95 905.675 2030.95C899.593 2030.95 894.623 2025.98 894.623 2019.9C894.623 2013.81 899.593 2008.84 905.675 2008.84C911.757 2008.84 916.727 2013.75 916.727 2019.9Z" fill="#3C2A21" fill-opacity="0.5"/>
<path d="M1016.13 2019.9C1016.13 2025.98 1011.16 2030.95 1005.08 2030.95C998.996 2030.95 994.026 2025.98 994.026 2019.9C994.026 2013.81 998.996 2008.84 1005.08 2008.84C1011.16 2008.84 1016.13 2013.75 1016.13 2019.9Z" fill="#3C2A21" fill-opacity="0.5"/>
<path d="M22.104 2108.25C22.104 2114.33 17.1339 2119.3 11.052 2119.3C4.97012 2119.3 0 2114.33 0 2108.25C0 2102.17 4.97012 2097.19 11.052 2097.19C17.1339 2097.19 22.104 2102.17 22.104 2108.25Z" fill="#3C2A21" fill-opacity="0.5"/>
<path d="M121.507 2108.25C121.507 2114.33 116.536 2119.3 110.455 2119.3C104.373 2119.3 99.4026 2114.33 99.4026 2108.25C99.4026 2102.17 104.373 2097.19 110.455 2097.19C116.536 2097.19 121.507 2102.17 121.507 2108.25Z" fill="#3C2A21" fill-opacity="0.5"/>
<path d="M220.908 2108.25C220.908 2114.33 215.938 2119.3 209.856 2119.3C203.774 2119.3 198.804 2114.33 198.804 2108.25C198.804 2102.17 203.774 2097.19 209.856 2097.19C215.938 2097.19 220.908 2102.17 220.908 2108.25Z" fill="#3C2A21" fill-opacity="0.5"/>
<path d="M320.313 2108.25C320.313 2114.33 315.343 2119.3 309.261 2119.3C303.179 2119.3 298.209 2114.33 298.209 2108.25C298.209 2102.17 303.179 2097.19 309.261 2097.19C315.343 2097.19 320.313 2102.17 320.313 2108.25Z" fill="#3C2A21" fill-opacity="0.5"/>
<path d="M419.714 2108.25C419.714 2114.33 414.744 2119.3 408.662 2119.3C402.58 2119.3 397.61 2114.33 397.61 2108.25C397.61 2102.17 402.58 2097.19 408.662 2097.19C414.744 2097.19 419.714 2102.17 419.714 2108.25Z" fill="#3C2A21" fill-opacity="0.5"/>
<path d="M519.117 2108.25C519.117 2114.33 514.147 2119.3 508.065 2119.3C501.983 2119.3 497.013 2114.33 497.013 2108.25C497.013 2102.17 501.983 2097.19 508.065 2097.19C514.147 2097.19 519.117 2102.17 519.117 2108.25Z" fill="#3C2A21" fill-opacity="0.5"/>
<path d="M618.52 2108.25C618.52 2114.33 613.549 2119.3 607.467 2119.3C601.386 2119.3 596.416 2114.33 596.416 2108.25C596.416 2102.17 601.386 2097.19 607.467 2097.19C613.549 2097.19 618.52 2102.17 618.52 2108.25Z" fill="#3C2A21" fill-opacity="0.5"/>
<path d="M717.922 2108.25C717.922 2114.33 712.952 2119.3 706.87 2119.3C700.788 2119.3 695.818 2114.33 695.818 2108.25C695.818 2102.17 700.788 2097.19 706.87 2097.19C712.952 2097.19 717.922 2102.17 717.922 2108.25Z" fill="#3C2A21" fill-opacity="0.5"/>
<path d="M817.326 2108.25C817.326 2114.33 812.356 2119.3 806.274 2119.3C800.192 2119.3 795.222 2114.33 795.222 2108.25C795.222 2102.17 800.192 2097.19 806.274 2097.19C812.356 2097.19 817.326 2102.17 817.326 2108.25Z" fill="#3C2A21" fill-opacity="0.5"/>
<path d="M916.727 2108.25C916.727 2114.33 911.757 2119.3 905.675 2119.3C899.593 2119.3 894.623 2114.33 894.623 2108.25C894.623 2102.17 899.593 2097.19 905.675 2097.19C911.757 2097.19 916.727 2102.17 916.727 2108.25Z" fill="#3C2A21" fill-opacity="0.5"/>
<path d="M1016.13 2108.25C1016.13 2114.33 1011.16 2119.3 1005.08 2119.3C998.996 2119.3 994.026 2114.33 994.026 2108.25C994.026 2102.17 998.996 2097.19 1005.08 2097.19C1011.16 2097.19 1016.13 2102.17 1016.13 2108.25Z" fill="#3C2A21" fill-opacity="0.5"/>
<path d="M11.052 2207.65C17.1558 2207.65 22.104 2202.7 22.104 2196.6C22.104 2190.49 17.1558 2185.55 11.052 2185.55C4.94814 2185.55 0 2190.49 0 2196.6C0 2202.7 4.94814 2207.65 11.052 2207.65Z" fill="#3C2A21" fill-opacity="0.5"/>
<path d="M110.455 2207.65C116.558 2207.65 121.507 2202.7 121.507 2196.6C121.507 2190.49 116.558 2185.55 110.455 2185.55C104.351 2185.55 99.4026 2190.49 99.4026 2196.6C99.4026 2202.7 104.351 2207.65 110.455 2207.65Z" fill="#3C2A21" fill-opacity="0.5"/>
<path d="M209.856 2207.65C215.96 2207.65 220.908 2202.7 220.908 2196.6C220.908 2190.49 215.96 2185.55 209.856 2185.55C203.752 2185.55 198.804 2190.49 198.804 2196.6C198.804 2202.7 203.752 2207.65 209.856 2207.65Z" fill="#3C2A21" fill-opacity="0.5"/>
<path d="M320.313 2196.6C320.313 2202.68 315.343 2207.65 309.261 2207.65C303.179 2207.65 298.209 2202.68 298.209 2196.6C298.209 2190.52 303.179 2185.55 309.261 2185.55C315.343 2185.55 320.313 2190.52 320.313 2196.6Z" fill="#3C2A21" fill-opacity="0.5"/>
<path d="M419.714 2196.6C419.714 2202.68 414.744 2207.65 408.662 2207.65C402.58 2207.65 397.61 2202.68 397.61 2196.6C397.61 2190.52 402.58 2185.55 408.662 2185.55C414.744 2185.55 419.714 2190.52 419.714 2196.6Z" fill="#3C2A21" fill-opacity="0.5"/>
<path d="M508.065 2207.65C514.169 2207.65 519.117 2202.7 519.117 2196.6C519.117 2190.49 514.169 2185.55 508.065 2185.55C501.961 2185.55 497.013 2190.49 497.013 2196.6C497.013 2202.7 501.961 2207.65 508.065 2207.65Z" fill="#3C2A21" fill-opacity="0.5"/>
<path d="M607.467 2207.65C613.571 2207.65 618.52 2202.7 618.52 2196.6C618.52 2190.49 613.571 2185.55 607.467 2185.55C601.364 2185.55 596.416 2190.49 596.416 2196.6C596.416 2202.7 601.364 2207.65 607.467 2207.65Z" fill="#3C2A21" fill-opacity="0.5"/>
<path d="M706.87 2207.65C712.974 2207.65 717.922 2202.7 717.922 2196.6C717.922 2190.49 712.974 2185.55 706.87 2185.55C700.766 2185.55 695.818 2190.49 695.818 2196.6C695.818 2202.7 700.766 2207.65 706.87 2207.65Z" fill="#3C2A21" fill-opacity="0.5"/>
<path d="M806.274 2207.65C812.378 2207.65 817.326 2202.7 817.326 2196.6C817.326 2190.49 812.378 2185.55 806.274 2185.55C800.17 2185.55 795.222 2190.49 795.222 2196.6C795.222 2202.7 800.17 2207.65 806.274 2207.65Z" fill="#3C2A21" fill-opacity="0.5"/>
<path d="M905.675 2207.65C911.779 2207.65 916.727 2202.7 916.727 2196.6C916.727 2190.49 911.779 2185.55 905.675 2185.55C899.571 2185.55 894.623 2190.49 894.623 2196.6C894.623 2202.7 899.571 2207.65 905.675 2207.65Z" fill="#3C2A21" fill-opacity="0.5"/>
<path d="M1005.08 2207.65C1011.18 2207.65 1016.13 2202.7 1016.13 2196.6C1016.13 2190.49 1011.18 2185.55 1005.08 2185.55C998.974 2185.55 994.026 2190.49 994.026 2196.6C994.026 2202.7 998.974 2207.65 1005.08 2207.65Z" fill="#3C2A21" fill-opacity="0.5"/>
<path d="M22.104 2284.95C22.104 2291.03 17.1339 2296 11.052 2296C4.97012 2296 0 2291.03 0 2284.95C0 2278.87 4.97012 2273.9 11.052 2273.9C17.1339 2273.9 22.104 2278.87 22.104 2284.95Z" fill="#3C2A21" fill-opacity="0.5"/>
<path d="M121.507 2284.95C121.507 2291.03 116.536 2296 110.455 2296C104.373 2296 99.4026 2291.03 99.4026 2284.95C99.4026 2278.87 104.373 2273.9 110.455 2273.9C116.536 2273.9 121.507 2278.87 121.507 2284.95Z" fill="#3C2A21" fill-opacity="0.5"/>
<path d="M220.908 2284.95C220.908 2291.03 215.938 2296 209.856 2296C203.774 2296 198.804 2291.03 198.804 2284.95C198.804 2278.87 203.774 2273.9 209.856 2273.9C215.938 2273.9 220.908 2278.87 220.908 2284.95Z" fill="#3C2A21" fill-opacity="0.5"/>
<path d="M320.313 2284.95C320.313 2291.03 315.343 2296 309.261 2296C303.179 2296 298.209 2291.03 298.209 2284.95C298.209 2278.87 303.179 2273.9 309.261 2273.9C315.343 2273.9 320.313 2278.87 320.313 2284.95Z" fill="#3C2A21" fill-opacity="0.5"/>
<path d="M419.714 2284.95C419.714 2291.03 414.744 2296 408.662 2296C402.58 2296 397.61 2291.03 397.61 2284.95C397.61 2278.87 402.58 2273.9 408.662 2273.9C414.744 2273.9 419.714 2278.87 419.714 2284.95Z" fill="#3C2A21" fill-opacity="0.5"/>
<path d="M519.117 2284.95C519.117 2291.03 514.147 2296 508.065 2296C501.983 2296 497.013 2291.03 497.013 2284.95C497.013 2278.87 501.983 2273.9 508.065 2273.9C514.147 2273.9 519.117 2278.87 519.117 2284.95Z" fill="#3C2A21" fill-opacity="0.5"/>
<path d="M618.52 2284.95C618.52 2291.03 613.549 2296 607.467 2296C601.386 2296 596.416 2291.03 596.416 2284.95C596.416 2278.87 601.386 2273.9 607.467 2273.9C613.549 2273.9 618.52 2278.87 618.52 2284.95Z" fill="#3C2A21" fill-opacity="0.5"/>
<path d="M717.922 2284.95C717.922 2291.03 712.952 2296 706.87 2296C700.788 2296 695.818 2291.03 695.818 2284.95C695.818 2278.87 700.788 2273.9 706.87 2273.9C712.952 2273.9 717.922 2278.87 717.922 2284.95Z" fill="#3C2A21" fill-opacity="0.5"/>
<path d="M817.326 2284.95C817.326 2291.03 812.356 2296 806.274 2296C800.192 2296 795.222 2291.03 795.222 2284.95C795.222 2278.87 800.192 2273.9 806.274 2273.9C812.356 2273.9 817.326 2278.87 817.326 2284.95Z" fill="#3C2A21" fill-opacity="0.5"/>
<path d="M916.727 2284.95C916.727 2291.03 911.757 2296 905.675 2296C899.593 2296 894.623 2291.03 894.623 2284.95C894.623 2278.87 899.593 2273.9 905.675 2273.9C911.757 2273.9 916.727 2278.87 916.727 2284.95Z" fill="#3C2A21" fill-opacity="0.5"/>
<path d="M1016.13 2284.95C1016.13 2291.03 1011.16 2296 1005.08 2296C998.996 2296 994.026 2291.03 994.026 2284.95C994.026 2278.87 998.996 2273.9 1005.08 2273.9C1011.16 2273.9 1016.13 2278.87 1016.13 2284.95Z" fill="#3C2A21" fill-opacity="0.5"/>
</svg>
