<svg width="91" height="63" viewBox="0 0 91 63" fill="none" xmlns="http://www.w3.org/2000/svg">
<path d="M11.5528 62.4227H6.15061L0 45.5411H4.85986L8.88842 57.6363L12.917 45.5411H17.7034L11.5528 62.4251V62.4227Z" fill="#053F64"/>
<path d="M23.5509 62.423H18.9681V45.5391H23.5509V62.423Z" fill="#053F64"/>
<path d="M38.1778 50.7616C37.0694 50.134 35.3926 49.35 33.3061 49.35C32.0769 49.35 31.1343 49.6887 31.1343 50.4466C31.1343 51.3987 32.8585 51.4958 34.5827 51.8344L35.125 51.9434C38.6112 52.6184 40.3827 54.2952 40.3827 56.8885C40.3827 61.1563 36.7757 62.7383 33.183 62.7383C30.1562 62.7383 27.4065 62.0136 25.4763 60.64L27.7192 56.9027C29.0573 57.7103 30.6749 58.6387 33.2422 58.6387C34.4713 58.6387 35.3761 58.3 35.3761 57.4688C35.3761 56.5877 34.3269 56.4314 32.2285 56.0691L31.5891 55.9601C27.705 55.297 26.0897 53.6202 26.175 50.629C26.2603 47.3962 28.972 45.2386 33.0243 45.2386C35.2316 45.2386 37.221 45.4683 40.1507 47.0125L38.1731 50.7616H38.1778Z" fill="#053F64"/>
<path d="M46.8958 62.423H42.313V45.5391H46.8958V62.423Z" fill="#053F64"/>
<path d="M66.5531 53.9821C66.5531 59.0219 62.8514 62.7379 57.6292 62.7379C52.407 62.7379 48.7052 59.0243 48.7052 53.9821C48.7052 48.9398 52.407 45.2263 57.6292 45.2263C62.8514 45.2263 66.5531 48.9398 66.5531 53.9821ZM53.468 53.9821C53.468 56.5636 55.1684 58.3469 57.6292 58.3469C60.0899 58.3469 61.7904 56.5612 61.7904 53.9821C61.7904 51.4029 60.0899 49.6172 57.6292 49.6172C55.1684 49.6172 53.468 51.4029 53.468 53.9821Z" fill="#053F64"/>
<path d="M84.363 62.423H79.9011L72.9428 52.9331V62.423H68.3601V45.5391H72.8221L79.7803 55.0291V45.5391H84.363V62.423Z" fill="#053F64"/>
<path d="M68.2559 7.07192C68.6822 8.96187 68.8977 10.8968 68.8977 12.8341C68.8977 27.2029 57.2739 38.8647 42.9074 38.9121C42.8695 38.9121 42.834 38.9121 42.7961 38.9121C42.6517 38.9121 42.5072 38.9121 42.3627 38.9073C34.7745 38.7013 28.7281 32.4796 28.7281 24.8867C28.7281 20.2968 30.9354 16.2138 34.3529 13.6536C33.2114 15.3043 32.5459 17.3032 32.5459 19.456C32.5459 25.0951 37.1168 29.666 42.7559 29.666C51.3932 29.666 58.3965 22.6628 58.3965 14.0254C58.3965 8.36741 55.3934 3.41282 50.8912 0.665527C57.0086 1.67918 62.8892 3.83438 68.2559 7.06955" fill="url(#paint0_linear_333_104)"/>
<path d="M17.251 31.8425C16.8247 29.9526 16.6116 28.0176 16.6116 26.0803C16.6116 11.7115 28.2331 0.0497354 42.6019 0C42.6398 0 42.6753 0 42.7132 0C42.8577 0 43.0021 0 43.1466 0.0047367C50.7348 0.210783 56.7812 6.43481 56.7812 14.0254C56.7812 18.6152 54.5739 22.6983 51.1564 25.2585C52.2979 23.6077 52.9658 21.6088 52.9658 19.456C52.9658 13.817 48.3949 9.24605 42.7558 9.24605C34.1184 9.24605 27.1152 16.2493 27.1152 24.8866C27.1152 30.5446 30.1183 35.4992 34.6182 38.2465C28.5007 37.2329 22.6201 35.0777 17.2534 31.8425" fill="url(#paint1_linear_333_104)"/>
<path d="M29.2183 1.87848C20.7325 6.61282 14.9964 15.6765 14.9964 26.0783C14.9964 27.6106 15.1219 29.1406 15.3753 30.6516C10.8044 27.6083 6.75925 23.8189 3.42224 19.454C9.98731 10.8687 19.051 4.7655 29.2183 1.87848Z" fill="url(#paint2_linear_333_104)"/>
<path d="M56.2862 37.036C64.7721 32.3041 70.5082 23.2356 70.5082 12.8338C70.5082 11.3015 70.3827 9.77157 70.1316 8.26056C74.7026 11.3039 78.7477 15.0933 82.0847 19.4558C75.5196 28.0458 66.456 34.149 56.2862 37.0337" fill="url(#paint3_linear_333_104)"/>
<path d="M37.3063 19.42C37.9244 20.0665 38.7794 20.4336 39.6723 20.4336C40.5651 20.4336 41.4201 20.0665 42.0382 19.42C42.6564 18.7758 42.9809 17.9019 42.9382 17.009C42.9809 16.1161 42.654 15.2469 42.0382 14.598C41.4201 13.9514 40.5651 13.5844 39.6723 13.5844C38.7794 13.5844 37.9221 13.9514 37.3063 14.598C36.6881 15.2446 36.3637 16.1161 36.4063 17.009C36.3637 17.9019 36.6905 18.7734 37.3063 19.42Z" fill="#295A8F"/>
<path d="M88.2 58.8C87.9242 58.8 87.6511 58.8544 87.3963 58.9599C87.1416 59.0654 86.9101 59.2201 86.7151 59.4151C86.3212 59.809 86.1 60.3431 86.1 60.9C86.1 61.457 86.3212 61.9911 86.7151 62.385C86.9101 62.58 87.1416 62.7347 87.3963 62.8402C87.6511 62.9457 87.9242 63 88.2 63C88.7569 63 89.2911 62.7788 89.6849 62.385C90.0787 61.9911 90.3 61.457 90.3 60.9C90.3 60.6243 90.2457 60.3512 90.1401 60.0964C90.0346 59.8416 89.8799 59.6101 89.6849 59.4151C89.4899 59.2201 89.2584 59.0654 89.0036 58.9599C88.7488 58.8544 88.4758 58.8 88.2 58.8ZM88.2 62.58C87.2739 62.58 86.52 61.8261 86.52 60.9C86.52 59.9739 87.2739 59.22 88.2 59.22C89.1261 59.22 89.88 59.9739 89.88 60.9C89.88 61.8261 89.1261 62.58 88.2 62.58ZM88.2525 61.1667H87.9501V61.845H87.57V59.9991H88.2546C88.4709 59.9991 88.6389 60.0474 88.7586 60.144C88.8762 60.2427 88.935 60.375 88.935 60.5556C88.935 60.6816 88.9077 60.7866 88.8531 60.8706C88.7985 60.9546 88.7166 61.0218 88.6053 61.0701L89.0043 61.824V61.845H88.5969L88.2525 61.1667ZM87.9501 60.8601H88.2567C88.3512 60.8601 88.4247 60.8349 88.4772 60.7866C88.5297 60.7383 88.5549 60.6711 88.5549 60.585C88.5549 60.4989 88.5318 60.4317 88.4814 60.3813C88.4331 60.3309 88.3575 60.3078 88.2546 60.3078H87.9501V60.8601Z" fill="#053F64"/>
<defs>
<linearGradient id="paint0_linear_333_104" x1="3.22331" y1="19.456" x2="81.8858" y2="19.456" gradientUnits="userSpaceOnUse">
<stop stop-color="#FF6355"/>
<stop offset="0.09" stop-color="#FBA949"/>
<stop offset="0.16" stop-color="#FAE442"/>
<stop offset="0.23" stop-color="#8BD448"/>
<stop offset="0.32" stop-color="#2AA8F2"/>
<stop offset="0.54" stop-color="#053F64"/>
</linearGradient>
<linearGradient id="paint1_linear_333_104" x1="3.22328" y1="19.456" x2="81.8858" y2="19.456" gradientUnits="userSpaceOnUse">
<stop stop-color="#FF6355"/>
<stop offset="0.09" stop-color="#FBA949"/>
<stop offset="0.16" stop-color="#FAE442"/>
<stop offset="0.23" stop-color="#8BD448"/>
<stop offset="0.32" stop-color="#2AA8F2"/>
<stop offset="0.54" stop-color="#053F64"/>
</linearGradient>
<linearGradient id="paint2_linear_333_104" x1="3.2233" y1="19.4564" x2="81.8858" y2="19.4564" gradientUnits="userSpaceOnUse">
<stop stop-color="#FF6355"/>
<stop offset="0.09" stop-color="#FBA949"/>
<stop offset="0.16" stop-color="#FAE442"/>
<stop offset="0.23" stop-color="#8BD448"/>
<stop offset="0.32" stop-color="#2AA8F2"/>
<stop offset="0.54" stop-color="#053F64"/>
</linearGradient>
<linearGradient id="paint3_linear_333_104" x1="3.22331" y1="19.4558" x2="81.8858" y2="19.4558" gradientUnits="userSpaceOnUse">
<stop stop-color="#FF6355"/>
<stop offset="0.09" stop-color="#FBA949"/>
<stop offset="0.16" stop-color="#FAE442"/>
<stop offset="0.23" stop-color="#8BD448"/>
<stop offset="0.32" stop-color="#2AA8F2"/>
<stop offset="0.54" stop-color="#053F64"/>
</linearGradient>
</defs>
</svg>
