<svg width="2419" height="2535" viewBox="0 0 2419 2535" fill="none" xmlns="http://www.w3.org/2000/svg">
<path d="M1230.29 1386.24C1237.5 1386.24 1243.35 1380.39 1243.35 1373.18C1243.35 1365.96 1237.5 1360.11 1230.29 1360.11C1223.07 1360.11 1217.22 1365.96 1217.22 1373.18C1217.22 1380.39 1223.07 1386.24 1230.29 1386.24Z" fill="#3C2A21" fill-opacity="0.5"/>
<path d="M1347.78 1386.24C1354.99 1386.24 1360.84 1380.39 1360.84 1373.18C1360.84 1365.96 1354.99 1360.11 1347.78 1360.11C1340.56 1360.11 1334.71 1365.96 1334.71 1373.18C1334.71 1380.39 1340.56 1386.24 1347.78 1386.24Z" fill="#3C2A21" fill-opacity="0.5"/>
<path d="M1465.26 1386.24C1472.48 1386.24 1478.33 1380.39 1478.33 1373.18C1478.33 1365.96 1472.48 1360.11 1465.26 1360.11C1458.05 1360.11 1452.2 1365.96 1452.2 1373.18C1452.2 1380.39 1458.05 1386.24 1465.26 1386.24Z" fill="#3C2A21" fill-opacity="0.5"/>
<path d="M1595.82 1373.18C1595.82 1380.37 1589.94 1386.24 1582.75 1386.24C1575.56 1386.24 1569.69 1380.37 1569.69 1373.18C1569.69 1365.99 1575.56 1360.11 1582.75 1360.11C1589.94 1360.11 1595.82 1365.99 1595.82 1373.18Z" fill="#3C2A21" fill-opacity="0.5"/>
<path d="M1713.3 1373.18C1713.3 1380.37 1707.43 1386.24 1700.24 1386.24C1693.05 1386.24 1687.18 1380.37 1687.18 1373.18C1687.18 1365.99 1693.05 1360.11 1700.24 1360.11C1707.43 1360.11 1713.3 1365.99 1713.3 1373.18Z" fill="#3C2A21" fill-opacity="0.5"/>
<path d="M1817.73 1386.24C1824.94 1386.24 1830.79 1380.39 1830.79 1373.18C1830.79 1365.96 1824.94 1360.11 1817.73 1360.11C1810.52 1360.11 1804.67 1365.96 1804.67 1373.18C1804.67 1380.39 1810.52 1386.24 1817.73 1386.24Z" fill="#3C2A21" fill-opacity="0.5"/>
<path d="M1935.22 1386.24C1942.43 1386.24 1948.28 1380.39 1948.28 1373.18C1948.28 1365.96 1942.43 1360.11 1935.22 1360.11C1928 1360.11 1922.15 1365.96 1922.15 1373.18C1922.15 1380.39 1928 1386.24 1935.22 1386.24Z" fill="#3C2A21" fill-opacity="0.5"/>
<path d="M2052.71 1386.24C2059.92 1386.24 2065.77 1380.39 2065.77 1373.18C2065.77 1365.96 2059.92 1360.11 2052.71 1360.11C2045.49 1360.11 2039.64 1365.96 2039.64 1373.18C2039.64 1380.39 2045.49 1386.24 2052.71 1386.24Z" fill="#3C2A21" fill-opacity="0.5"/>
<path d="M2170.19 1386.24C2177.41 1386.24 2183.26 1380.39 2183.26 1373.18C2183.26 1365.96 2177.41 1360.11 2170.19 1360.11C2162.98 1360.11 2157.13 1365.96 2157.13 1373.18C2157.13 1380.39 2162.98 1386.24 2170.19 1386.24Z" fill="#3C2A21" fill-opacity="0.5"/>
<path d="M2287.68 1386.24C2294.9 1386.24 2300.75 1380.39 2300.75 1373.18C2300.75 1365.96 2294.9 1360.11 2287.68 1360.11C2280.47 1360.11 2274.62 1365.96 2274.62 1373.18C2274.62 1380.39 2280.47 1386.24 2287.68 1386.24Z" fill="#3C2A21" fill-opacity="0.5"/>
<path d="M2405.17 1386.24C2412.39 1386.24 2418.24 1380.39 2418.24 1373.18C2418.24 1365.96 2412.39 1360.11 2405.17 1360.11C2397.96 1360.11 2392.11 1365.96 2392.11 1373.18C2392.11 1380.39 2397.96 1386.24 2405.17 1386.24Z" fill="#3C2A21" fill-opacity="0.5"/>
<path d="M1230.29 1490.67C1237.5 1490.67 1243.35 1484.82 1243.35 1477.6C1243.35 1470.39 1237.5 1464.54 1230.29 1464.54C1223.07 1464.54 1217.22 1470.39 1217.22 1477.6C1217.22 1484.82 1223.07 1490.67 1230.29 1490.67Z" fill="#3C2A21" fill-opacity="0.5"/>
<path d="M1347.78 1490.67C1354.99 1490.67 1360.84 1484.82 1360.84 1477.6C1360.84 1470.39 1354.99 1464.54 1347.78 1464.54C1340.56 1464.54 1334.71 1470.39 1334.71 1477.6C1334.71 1484.82 1340.56 1490.67 1347.78 1490.67Z" fill="#3C2A21" fill-opacity="0.5"/>
<path d="M1465.26 1490.67C1472.48 1490.67 1478.33 1484.82 1478.33 1477.6C1478.33 1470.39 1472.48 1464.54 1465.26 1464.54C1458.05 1464.54 1452.2 1470.39 1452.2 1477.6C1452.2 1484.82 1458.05 1490.67 1465.26 1490.67Z" fill="#3C2A21" fill-opacity="0.5"/>
<path d="M1595.82 1477.6C1595.82 1484.79 1589.94 1490.67 1582.75 1490.67C1575.56 1490.67 1569.69 1484.79 1569.69 1477.6C1569.69 1470.42 1575.56 1464.54 1582.75 1464.54C1589.94 1464.54 1595.82 1470.42 1595.82 1477.6Z" fill="#3C2A21" fill-opacity="0.5"/>
<path d="M1713.3 1477.6C1713.3 1484.79 1707.43 1490.67 1700.24 1490.67C1693.05 1490.67 1687.18 1484.79 1687.18 1477.6C1687.18 1470.42 1693.05 1464.54 1700.24 1464.54C1707.43 1464.54 1713.3 1470.42 1713.3 1477.6Z" fill="#3C2A21" fill-opacity="0.5"/>
<path d="M1817.73 1490.67C1824.94 1490.67 1830.79 1484.82 1830.79 1477.6C1830.79 1470.39 1824.94 1464.54 1817.73 1464.54C1810.52 1464.54 1804.67 1470.39 1804.67 1477.6C1804.67 1484.82 1810.52 1490.67 1817.73 1490.67Z" fill="#3C2A21" fill-opacity="0.5"/>
<path d="M1935.22 1490.67C1942.43 1490.67 1948.28 1484.82 1948.28 1477.6C1948.28 1470.39 1942.43 1464.54 1935.22 1464.54C1928 1464.54 1922.15 1470.39 1922.15 1477.6C1922.15 1484.82 1928 1490.67 1935.22 1490.67Z" fill="#3C2A21" fill-opacity="0.5"/>
<path d="M2052.71 1490.67C2059.92 1490.67 2065.77 1484.82 2065.77 1477.6C2065.77 1470.39 2059.92 1464.54 2052.71 1464.54C2045.49 1464.54 2039.64 1470.39 2039.64 1477.6C2039.64 1484.82 2045.49 1490.67 2052.71 1490.67Z" fill="#3C2A21" fill-opacity="0.5"/>
<path d="M2170.19 1490.67C2177.41 1490.67 2183.26 1484.82 2183.26 1477.6C2183.26 1470.39 2177.41 1464.54 2170.19 1464.54C2162.98 1464.54 2157.13 1470.39 2157.13 1477.6C2157.13 1484.82 2162.98 1490.67 2170.19 1490.67Z" fill="#3C2A21" fill-opacity="0.5"/>
<path d="M2287.68 1490.67C2294.9 1490.67 2300.75 1484.82 2300.75 1477.6C2300.75 1470.39 2294.9 1464.54 2287.68 1464.54C2280.47 1464.54 2274.62 1470.39 2274.62 1477.6C2274.62 1484.82 2280.47 1490.67 2287.68 1490.67Z" fill="#3C2A21" fill-opacity="0.5"/>
<path d="M2405.17 1490.67C2412.39 1490.67 2418.23 1484.82 2418.23 1477.6C2418.23 1470.39 2412.39 1464.54 2405.17 1464.54C2397.96 1464.54 2392.11 1470.39 2392.11 1477.6C2392.11 1484.82 2397.96 1490.67 2405.17 1490.67Z" fill="#3C2A21" fill-opacity="0.5"/>
<path d="M1230.29 1595.09C1237.5 1595.09 1243.35 1589.24 1243.35 1582.03C1243.35 1574.81 1237.5 1568.97 1230.29 1568.97C1223.07 1568.97 1217.22 1574.81 1217.22 1582.03C1217.22 1589.24 1223.07 1595.09 1230.29 1595.09Z" fill="#3C2A21" fill-opacity="0.5"/>
<path d="M1347.78 1595.09C1354.99 1595.09 1360.84 1589.24 1360.84 1582.03C1360.84 1574.81 1354.99 1568.97 1347.78 1568.97C1340.56 1568.97 1334.71 1574.81 1334.71 1582.03C1334.71 1589.24 1340.56 1595.09 1347.78 1595.09Z" fill="#3C2A21" fill-opacity="0.5"/>
<path d="M1465.26 1595.09C1472.48 1595.09 1478.33 1589.24 1478.33 1582.03C1478.33 1574.81 1472.48 1568.97 1465.26 1568.97C1458.05 1568.97 1452.2 1574.81 1452.2 1582.03C1452.2 1589.24 1458.05 1595.09 1465.26 1595.09Z" fill="#3C2A21" fill-opacity="0.5"/>
<path d="M1595.82 1582.03C1595.82 1589.22 1589.94 1595.09 1582.75 1595.09C1575.56 1595.09 1569.69 1589.22 1569.69 1582.03C1569.69 1574.84 1575.56 1568.97 1582.75 1568.97C1589.94 1568.97 1595.82 1574.84 1595.82 1582.03Z" fill="#3C2A21" fill-opacity="0.5"/>
<path d="M1713.3 1582.03C1713.3 1589.22 1707.43 1595.09 1700.24 1595.09C1693.05 1595.09 1687.18 1589.22 1687.18 1582.03C1687.18 1574.84 1693.05 1568.97 1700.24 1568.97C1707.43 1568.97 1713.3 1574.84 1713.3 1582.03Z" fill="#3C2A21" fill-opacity="0.5"/>
<path d="M1817.73 1595.09C1824.94 1595.09 1830.79 1589.24 1830.79 1582.03C1830.79 1574.81 1824.94 1568.97 1817.73 1568.97C1810.52 1568.97 1804.67 1574.81 1804.67 1582.03C1804.67 1589.24 1810.52 1595.09 1817.73 1595.09Z" fill="#3C2A21" fill-opacity="0.5"/>
<path d="M1935.22 1595.09C1942.43 1595.09 1948.28 1589.24 1948.28 1582.03C1948.28 1574.81 1942.43 1568.97 1935.22 1568.97C1928 1568.97 1922.15 1574.81 1922.15 1582.03C1922.15 1589.24 1928 1595.09 1935.22 1595.09Z" fill="#3C2A21" fill-opacity="0.5"/>
<path d="M2052.71 1595.09C2059.92 1595.09 2065.77 1589.24 2065.77 1582.03C2065.77 1574.81 2059.92 1568.97 2052.71 1568.97C2045.49 1568.97 2039.64 1574.81 2039.64 1582.03C2039.64 1589.24 2045.49 1595.09 2052.71 1595.09Z" fill="#3C2A21" fill-opacity="0.5"/>
<path d="M2170.19 1595.09C2177.41 1595.09 2183.26 1589.24 2183.26 1582.03C2183.26 1574.81 2177.41 1568.97 2170.19 1568.97C2162.98 1568.97 2157.13 1574.81 2157.13 1582.03C2157.13 1589.24 2162.98 1595.09 2170.19 1595.09Z" fill="#3C2A21" fill-opacity="0.5"/>
<path d="M2287.68 1595.09C2294.9 1595.09 2300.75 1589.24 2300.75 1582.03C2300.75 1574.81 2294.9 1568.97 2287.68 1568.97C2280.47 1568.97 2274.62 1574.81 2274.62 1582.03C2274.62 1589.24 2280.47 1595.09 2287.68 1595.09Z" fill="#3C2A21" fill-opacity="0.5"/>
<path d="M2405.17 1595.09C2412.39 1595.09 2418.23 1589.24 2418.23 1582.03C2418.23 1574.81 2412.39 1568.97 2405.17 1568.97C2397.96 1568.97 2392.11 1574.81 2392.11 1582.03C2392.11 1589.24 2397.96 1595.09 2405.17 1595.09Z" fill="#3C2A21" fill-opacity="0.5"/>
<path d="M1243.35 1686.45C1243.35 1693.64 1237.48 1699.52 1230.29 1699.52C1223.1 1699.52 1217.22 1693.64 1217.22 1686.45C1217.22 1679.27 1223.1 1673.39 1230.29 1673.39C1237.48 1673.39 1243.35 1679.27 1243.35 1686.45Z" fill="#3C2A21" fill-opacity="0.5"/>
<path d="M1360.84 1686.45C1360.84 1693.64 1354.96 1699.52 1347.78 1699.52C1340.59 1699.52 1334.71 1693.64 1334.71 1686.45C1334.71 1679.27 1340.59 1673.39 1347.78 1673.39C1354.96 1673.39 1360.84 1679.27 1360.84 1686.45Z" fill="#3C2A21" fill-opacity="0.5"/>
<path d="M1478.33 1686.45C1478.33 1693.64 1472.45 1699.52 1465.26 1699.52C1458.08 1699.52 1452.2 1693.64 1452.2 1686.45C1452.2 1679.27 1458.08 1673.39 1465.26 1673.39C1472.45 1673.39 1478.33 1679.27 1478.33 1686.45Z" fill="#3C2A21" fill-opacity="0.5"/>
<path d="M1595.82 1686.45C1595.82 1693.64 1589.94 1699.52 1582.75 1699.52C1575.56 1699.52 1569.69 1693.64 1569.69 1686.45C1569.69 1679.27 1575.56 1673.39 1582.75 1673.39C1589.94 1673.39 1595.82 1679.27 1595.82 1686.45Z" fill="#3C2A21" fill-opacity="0.5"/>
<path d="M1713.3 1686.45C1713.3 1693.64 1707.43 1699.52 1700.24 1699.52C1693.05 1699.52 1687.18 1693.64 1687.18 1686.45C1687.18 1679.27 1693.05 1673.39 1700.24 1673.39C1707.43 1673.39 1713.3 1679.27 1713.3 1686.45Z" fill="#3C2A21" fill-opacity="0.5"/>
<path d="M1830.79 1686.45C1830.79 1693.64 1824.92 1699.52 1817.73 1699.52C1810.54 1699.52 1804.67 1693.64 1804.67 1686.45C1804.67 1679.27 1810.54 1673.39 1817.73 1673.39C1824.92 1673.39 1830.79 1679.27 1830.79 1686.45Z" fill="#3C2A21" fill-opacity="0.5"/>
<path d="M1948.28 1686.45C1948.28 1693.64 1942.41 1699.52 1935.22 1699.52C1928.03 1699.52 1922.15 1693.64 1922.15 1686.45C1922.15 1679.27 1928.03 1673.39 1935.22 1673.39C1942.41 1673.39 1948.28 1679.27 1948.28 1686.45Z" fill="#3C2A21" fill-opacity="0.5"/>
<path d="M2065.77 1686.45C2065.77 1693.64 2059.9 1699.52 2052.71 1699.52C2045.52 1699.52 2039.64 1693.64 2039.64 1686.45C2039.64 1679.27 2045.52 1673.39 2052.71 1673.39C2059.9 1673.39 2065.77 1679.27 2065.77 1686.45Z" fill="#3C2A21" fill-opacity="0.5"/>
<path d="M2183.26 1686.45C2183.26 1693.64 2177.38 1699.52 2170.19 1699.52C2163.01 1699.52 2157.13 1693.64 2157.13 1686.45C2157.13 1679.27 2163.01 1673.39 2170.19 1673.39C2177.38 1673.39 2183.26 1679.27 2183.26 1686.45Z" fill="#3C2A21" fill-opacity="0.5"/>
<path d="M2300.75 1686.45C2300.75 1693.64 2294.87 1699.52 2287.68 1699.52C2280.5 1699.52 2274.62 1693.64 2274.62 1686.45C2274.62 1679.27 2280.5 1673.39 2287.68 1673.39C2294.87 1673.39 2300.75 1679.27 2300.75 1686.45Z" fill="#3C2A21" fill-opacity="0.5"/>
<path d="M2418.23 1686.45C2418.23 1693.64 2412.36 1699.52 2405.17 1699.52C2397.98 1699.52 2392.11 1693.64 2392.11 1686.45C2392.11 1679.27 2397.98 1673.39 2405.17 1673.39C2412.36 1673.39 2418.23 1679.27 2418.23 1686.45Z" fill="#3C2A21" fill-opacity="0.5"/>
<path d="M1243.35 1790.88C1243.35 1798.07 1237.48 1803.94 1230.29 1803.94C1223.1 1803.94 1217.22 1798.07 1217.22 1790.88C1217.22 1783.69 1223.1 1777.82 1230.29 1777.82C1237.48 1777.82 1243.35 1783.69 1243.35 1790.88Z" fill="#3C2A21" fill-opacity="0.5"/>
<path d="M1360.84 1790.88C1360.84 1798.07 1354.96 1803.94 1347.78 1803.94C1340.59 1803.94 1334.71 1798.07 1334.71 1790.88C1334.71 1783.69 1340.59 1777.82 1347.78 1777.82C1354.96 1777.82 1360.84 1783.69 1360.84 1790.88Z" fill="#3C2A21" fill-opacity="0.5"/>
<path d="M1478.33 1790.88C1478.33 1798.07 1472.45 1803.94 1465.26 1803.94C1458.08 1803.94 1452.2 1798.07 1452.2 1790.88C1452.2 1783.69 1458.08 1777.82 1465.26 1777.82C1472.45 1777.82 1478.33 1783.69 1478.33 1790.88Z" fill="#3C2A21" fill-opacity="0.5"/>
<path d="M1595.82 1790.88C1595.82 1798.07 1589.94 1803.94 1582.75 1803.94C1575.56 1803.94 1569.69 1798.07 1569.69 1790.88C1569.69 1783.69 1575.56 1777.82 1582.75 1777.82C1589.94 1777.82 1595.82 1783.69 1595.82 1790.88Z" fill="#3C2A21" fill-opacity="0.5"/>
<path d="M1713.3 1790.88C1713.3 1798.07 1707.43 1803.94 1700.24 1803.94C1693.05 1803.94 1687.18 1798.07 1687.18 1790.88C1687.18 1783.69 1693.05 1777.82 1700.24 1777.82C1707.43 1777.82 1713.3 1783.69 1713.3 1790.88Z" fill="#3C2A21" fill-opacity="0.5"/>
<path d="M1830.79 1790.88C1830.79 1798.07 1824.92 1803.94 1817.73 1803.94C1810.54 1803.94 1804.67 1798.07 1804.67 1790.88C1804.67 1783.69 1810.54 1777.82 1817.73 1777.82C1824.92 1777.82 1830.79 1783.69 1830.79 1790.88Z" fill="#3C2A21" fill-opacity="0.5"/>
<path d="M1948.28 1790.88C1948.28 1798.07 1942.41 1803.94 1935.22 1803.94C1928.03 1803.94 1922.15 1798.07 1922.15 1790.88C1922.15 1783.69 1928.03 1777.82 1935.22 1777.82C1942.41 1777.82 1948.28 1783.69 1948.28 1790.88Z" fill="#3C2A21" fill-opacity="0.5"/>
<path d="M2065.77 1790.88C2065.77 1798.07 2059.9 1803.94 2052.71 1803.94C2045.52 1803.94 2039.64 1798.07 2039.64 1790.88C2039.64 1783.69 2045.52 1777.82 2052.71 1777.82C2059.9 1777.82 2065.77 1783.69 2065.77 1790.88Z" fill="#3C2A21" fill-opacity="0.5"/>
<path d="M2183.26 1790.88C2183.26 1798.07 2177.38 1803.94 2170.19 1803.94C2163.01 1803.94 2157.13 1798.07 2157.13 1790.88C2157.13 1783.69 2163.01 1777.82 2170.19 1777.82C2177.38 1777.82 2183.26 1783.69 2183.26 1790.88Z" fill="#3C2A21" fill-opacity="0.5"/>
<path d="M2300.75 1790.88C2300.75 1798.07 2294.87 1803.94 2287.68 1803.94C2280.5 1803.94 2274.62 1798.07 2274.62 1790.88C2274.62 1783.69 2280.5 1777.82 2287.68 1777.82C2294.87 1777.82 2300.75 1783.69 2300.75 1790.88Z" fill="#3C2A21" fill-opacity="0.5"/>
<path d="M2418.23 1790.88C2418.23 1798.07 2412.36 1803.94 2405.17 1803.94C2397.98 1803.94 2392.11 1798.07 2392.11 1790.88C2392.11 1783.69 2397.98 1777.82 2405.17 1777.82C2412.36 1777.82 2418.23 1783.69 2418.23 1790.88Z" fill="#3C2A21" fill-opacity="0.5"/>
<path d="M1243.35 1895.31C1243.35 1902.49 1237.48 1908.37 1230.29 1908.37C1223.1 1908.37 1217.22 1902.49 1217.22 1895.31C1217.22 1888.12 1223.1 1882.24 1230.29 1882.24C1237.48 1882.24 1243.35 1888.12 1243.35 1895.31Z" fill="#3C2A21" fill-opacity="0.5"/>
<path d="M1360.84 1895.31C1360.84 1902.49 1354.96 1908.37 1347.78 1908.37C1340.59 1908.37 1334.71 1902.49 1334.71 1895.31C1334.71 1888.12 1340.59 1882.24 1347.78 1882.24C1354.96 1882.24 1360.84 1888.12 1360.84 1895.31Z" fill="#3C2A21" fill-opacity="0.5"/>
<path d="M1478.33 1895.31C1478.33 1902.49 1472.45 1908.37 1465.26 1908.37C1458.08 1908.37 1452.2 1902.49 1452.2 1895.31C1452.2 1888.12 1458.08 1882.24 1465.26 1882.24C1472.45 1882.24 1478.33 1888.12 1478.33 1895.31Z" fill="#3C2A21" fill-opacity="0.5"/>
<path d="M1595.82 1895.31C1595.82 1902.49 1589.94 1908.37 1582.75 1908.37C1575.56 1908.37 1569.69 1902.49 1569.69 1895.31C1569.69 1888.12 1575.56 1882.24 1582.75 1882.24C1589.94 1882.24 1595.82 1888.12 1595.82 1895.31Z" fill="#3C2A21" fill-opacity="0.5"/>
<path d="M1713.3 1895.31C1713.3 1902.49 1707.43 1908.37 1700.24 1908.37C1693.05 1908.37 1687.18 1902.49 1687.18 1895.31C1687.18 1888.12 1693.05 1882.24 1700.24 1882.24C1707.43 1882.24 1713.3 1888.12 1713.3 1895.31Z" fill="#3C2A21" fill-opacity="0.5"/>
<path d="M1830.79 1895.31C1830.79 1902.49 1824.92 1908.37 1817.73 1908.37C1810.54 1908.37 1804.67 1902.49 1804.67 1895.31C1804.67 1888.12 1810.54 1882.24 1817.73 1882.24C1824.92 1882.24 1830.79 1888.12 1830.79 1895.31Z" fill="#3C2A21" fill-opacity="0.5"/>
<path d="M1948.28 1895.31C1948.28 1902.49 1942.41 1908.37 1935.22 1908.37C1928.03 1908.37 1922.15 1902.49 1922.15 1895.31C1922.15 1888.12 1928.03 1882.24 1935.22 1882.24C1942.41 1882.24 1948.28 1888.12 1948.28 1895.31Z" fill="#3C2A21" fill-opacity="0.5"/>
<path d="M2065.77 1895.31C2065.77 1902.49 2059.9 1908.37 2052.71 1908.37C2045.52 1908.37 2039.64 1902.49 2039.64 1895.31C2039.64 1888.12 2045.52 1882.24 2052.71 1882.24C2059.9 1882.24 2065.77 1888.12 2065.77 1895.31Z" fill="#3C2A21" fill-opacity="0.5"/>
<path d="M2183.26 1895.31C2183.26 1902.49 2177.38 1908.37 2170.19 1908.37C2163.01 1908.37 2157.13 1902.49 2157.13 1895.31C2157.13 1888.12 2163.01 1882.24 2170.19 1882.24C2177.38 1882.24 2183.26 1888.12 2183.26 1895.31Z" fill="#3C2A21" fill-opacity="0.5"/>
<path d="M2300.75 1895.31C2300.75 1902.49 2294.87 1908.37 2287.68 1908.37C2280.5 1908.37 2274.62 1902.49 2274.62 1895.31C2274.62 1888.12 2280.5 1882.24 2287.68 1882.24C2294.87 1882.24 2300.75 1888.12 2300.75 1895.31Z" fill="#3C2A21" fill-opacity="0.5"/>
<path d="M2418.23 1895.31C2418.23 1902.49 2412.36 1908.37 2405.17 1908.37C2397.98 1908.37 2392.11 1902.49 2392.11 1895.31C2392.11 1888.12 2397.98 1882.24 2405.17 1882.24C2412.36 1882.24 2418.23 1888.12 2418.23 1895.31Z" fill="#3C2A21" fill-opacity="0.5"/>
<path d="M1230.29 2012.79C1237.5 2012.79 1243.35 2006.95 1243.35 1999.73C1243.35 1992.52 1237.5 1986.67 1230.29 1986.67C1223.07 1986.67 1217.22 1992.52 1217.22 1999.73C1217.22 2006.95 1223.07 2012.79 1230.29 2012.79Z" fill="#3C2A21" fill-opacity="0.5"/>
<path d="M1347.78 2012.79C1354.99 2012.79 1360.84 2006.95 1360.84 1999.73C1360.84 1992.52 1354.99 1986.67 1347.78 1986.67C1340.56 1986.67 1334.71 1992.52 1334.71 1999.73C1334.71 2006.95 1340.56 2012.79 1347.78 2012.79Z" fill="#3C2A21" fill-opacity="0.5"/>
<path d="M1465.26 2012.79C1472.48 2012.79 1478.33 2006.95 1478.33 1999.73C1478.33 1992.52 1472.48 1986.67 1465.26 1986.67C1458.05 1986.67 1452.2 1992.52 1452.2 1999.73C1452.2 2006.95 1458.05 2012.79 1465.26 2012.79Z" fill="#3C2A21" fill-opacity="0.5"/>
<path d="M1595.82 1999.73C1595.82 2006.92 1589.94 2012.79 1582.75 2012.79C1575.56 2012.79 1569.69 2006.92 1569.69 1999.73C1569.69 1992.54 1575.56 1986.67 1582.75 1986.67C1589.94 1986.75 1595.82 1992.54 1595.82 1999.73Z" fill="#3C2A21" fill-opacity="0.5"/>
<path d="M1713.3 1999.73C1713.3 2006.92 1707.43 2012.79 1700.24 2012.79C1693.05 2012.79 1687.18 2006.92 1687.18 1999.73C1687.18 1992.54 1693.05 1986.67 1700.24 1986.67C1707.43 1986.75 1713.3 1992.54 1713.3 1999.73Z" fill="#3C2A21" fill-opacity="0.5"/>
<path d="M1817.73 2012.79C1824.94 2012.79 1830.79 2006.95 1830.79 1999.73C1830.79 1992.52 1824.94 1986.67 1817.73 1986.67C1810.52 1986.67 1804.67 1992.52 1804.67 1999.73C1804.67 2006.95 1810.52 2012.79 1817.73 2012.79Z" fill="#3C2A21" fill-opacity="0.5"/>
<path d="M1935.22 2012.79C1942.43 2012.79 1948.28 2006.95 1948.28 1999.73C1948.28 1992.52 1942.43 1986.67 1935.22 1986.67C1928 1986.67 1922.15 1992.52 1922.15 1999.73C1922.15 2006.95 1928 2012.79 1935.22 2012.79Z" fill="#3C2A21" fill-opacity="0.5"/>
<path d="M2052.71 2012.79C2059.92 2012.79 2065.77 2006.95 2065.77 1999.73C2065.77 1992.52 2059.92 1986.67 2052.71 1986.67C2045.49 1986.67 2039.64 1992.52 2039.64 1999.73C2039.64 2006.95 2045.49 2012.79 2052.71 2012.79Z" fill="#3C2A21" fill-opacity="0.5"/>
<path d="M2170.19 2012.79C2177.41 2012.79 2183.26 2006.95 2183.26 1999.73C2183.26 1992.52 2177.41 1986.67 2170.19 1986.67C2162.98 1986.67 2157.13 1992.52 2157.13 1999.73C2157.13 2006.95 2162.98 2012.79 2170.19 2012.79Z" fill="#3C2A21" fill-opacity="0.5"/>
<path d="M2287.68 2012.79C2294.9 2012.79 2300.75 2006.95 2300.75 1999.73C2300.75 1992.52 2294.9 1986.67 2287.68 1986.67C2280.47 1986.67 2274.62 1992.52 2274.62 1999.73C2274.62 2006.95 2280.47 2012.79 2287.68 2012.79Z" fill="#3C2A21" fill-opacity="0.5"/>
<path d="M2405.17 2012.79C2412.39 2012.79 2418.23 2006.95 2418.23 1999.73C2418.23 1992.52 2412.39 1986.67 2405.17 1986.67C2397.96 1986.67 2392.11 1992.52 2392.11 1999.73C2392.11 2006.95 2397.96 2012.79 2405.17 2012.79Z" fill="#3C2A21" fill-opacity="0.5"/>
<path d="M1243.35 2104.24C1243.35 2111.42 1237.48 2117.3 1230.29 2117.3C1223.1 2117.3 1217.22 2111.42 1217.22 2104.24C1217.22 2097.05 1223.1 2091.17 1230.29 2091.17C1237.48 2091.17 1243.35 2096.97 1243.35 2104.24Z" fill="#3C2A21" fill-opacity="0.5"/>
<path d="M1360.84 2104.23C1360.84 2111.42 1354.96 2117.3 1347.78 2117.3C1340.59 2117.3 1334.71 2111.42 1334.71 2104.23C1334.71 2097.05 1340.59 2091.17 1347.78 2091.17C1354.96 2091.17 1360.84 2096.97 1360.84 2104.23Z" fill="#3C2A21" fill-opacity="0.5"/>
<path d="M1478.33 2104.23C1478.33 2111.42 1472.45 2117.3 1465.26 2117.3C1458.08 2117.3 1452.2 2111.42 1452.2 2104.23C1452.2 2097.05 1458.08 2091.17 1465.26 2091.17C1472.45 2091.17 1478.33 2096.97 1478.33 2104.23Z" fill="#3C2A21" fill-opacity="0.5"/>
<path d="M1595.82 2104.23C1595.82 2111.42 1589.94 2117.3 1582.75 2117.3C1575.56 2117.3 1569.69 2111.42 1569.69 2104.23C1569.69 2097.05 1575.56 2091.17 1582.75 2091.17C1589.94 2091.17 1595.82 2096.97 1595.82 2104.23Z" fill="#3C2A21" fill-opacity="0.5"/>
<path d="M1713.3 2104.23C1713.3 2111.42 1707.43 2117.3 1700.24 2117.3C1693.05 2117.3 1687.18 2111.42 1687.18 2104.23C1687.18 2097.05 1693.05 2091.17 1700.24 2091.17C1707.43 2091.17 1713.3 2096.97 1713.3 2104.23Z" fill="#3C2A21" fill-opacity="0.5"/>
<path d="M1830.79 2104.23C1830.79 2111.42 1824.92 2117.3 1817.73 2117.3C1810.54 2117.3 1804.67 2111.42 1804.67 2104.23C1804.67 2097.05 1810.54 2091.17 1817.73 2091.17C1824.92 2091.17 1830.79 2096.97 1830.79 2104.23Z" fill="#3C2A21" fill-opacity="0.5"/>
<path d="M1948.28 2104.23C1948.28 2111.42 1942.41 2117.3 1935.22 2117.3C1928.03 2117.3 1922.15 2111.42 1922.15 2104.23C1922.15 2097.05 1928.03 2091.17 1935.22 2091.17C1942.41 2091.17 1948.28 2096.97 1948.28 2104.23Z" fill="#3C2A21" fill-opacity="0.5"/>
<path d="M2065.77 2104.23C2065.77 2111.42 2059.9 2117.3 2052.71 2117.3C2045.52 2117.3 2039.64 2111.42 2039.64 2104.23C2039.64 2097.05 2045.52 2091.17 2052.71 2091.17C2059.9 2091.17 2065.77 2096.97 2065.77 2104.23Z" fill="#3C2A21" fill-opacity="0.5"/>
<path d="M2183.26 2104.23C2183.26 2111.42 2177.38 2117.3 2170.19 2117.3C2163.01 2117.3 2157.13 2111.42 2157.13 2104.23C2157.13 2097.05 2163.01 2091.17 2170.19 2091.17C2177.38 2091.17 2183.26 2096.97 2183.26 2104.23Z" fill="#3C2A21" fill-opacity="0.5"/>
<path d="M2300.75 2104.23C2300.75 2111.42 2294.87 2117.3 2287.68 2117.3C2280.5 2117.3 2274.62 2111.42 2274.62 2104.23C2274.62 2097.05 2280.5 2091.17 2287.68 2091.17C2294.87 2091.17 2300.75 2096.97 2300.75 2104.23Z" fill="#3C2A21" fill-opacity="0.5"/>
<path d="M2418.23 2104.23C2418.23 2111.42 2412.36 2117.3 2405.17 2117.3C2397.98 2117.3 2392.11 2111.42 2392.11 2104.23C2392.11 2097.05 2397.98 2091.17 2405.17 2091.17C2412.36 2091.17 2418.23 2096.97 2418.23 2104.23Z" fill="#3C2A21" fill-opacity="0.5"/>
<path d="M1243.35 2208.66C1243.35 2215.85 1237.48 2221.72 1230.29 2221.72C1223.1 2221.72 1217.22 2215.85 1217.22 2208.66C1217.22 2201.47 1223.1 2195.6 1230.29 2195.6C1237.48 2195.6 1243.35 2201.39 1243.35 2208.66Z" fill="#3C2A21" fill-opacity="0.5"/>
<path d="M1360.84 2208.66C1360.84 2215.85 1354.96 2221.72 1347.78 2221.72C1340.59 2221.72 1334.71 2215.85 1334.71 2208.66C1334.71 2201.47 1340.59 2195.6 1347.78 2195.6C1354.96 2195.6 1360.84 2201.39 1360.84 2208.66Z" fill="#3C2A21" fill-opacity="0.5"/>
<path d="M1478.33 2208.66C1478.33 2215.85 1472.45 2221.72 1465.26 2221.72C1458.08 2221.72 1452.2 2215.85 1452.2 2208.66C1452.2 2201.47 1458.08 2195.6 1465.26 2195.6C1472.45 2195.6 1478.33 2201.39 1478.33 2208.66Z" fill="#3C2A21" fill-opacity="0.5"/>
<path d="M1595.82 2208.66C1595.82 2215.85 1589.94 2221.72 1582.75 2221.72C1575.56 2221.72 1569.69 2215.85 1569.69 2208.66C1569.69 2201.47 1575.56 2195.6 1582.75 2195.6C1589.94 2195.6 1595.82 2201.39 1595.82 2208.66Z" fill="#3C2A21" fill-opacity="0.5"/>
<path d="M1713.3 2208.66C1713.3 2215.85 1707.43 2221.72 1700.24 2221.72C1693.05 2221.72 1687.18 2215.85 1687.18 2208.66C1687.18 2201.47 1693.05 2195.6 1700.24 2195.6C1707.43 2195.6 1713.3 2201.39 1713.3 2208.66Z" fill="#3C2A21" fill-opacity="0.5"/>
<path d="M1830.79 2208.66C1830.79 2215.85 1824.92 2221.72 1817.73 2221.72C1810.54 2221.72 1804.67 2215.85 1804.67 2208.66C1804.67 2201.47 1810.54 2195.6 1817.73 2195.6C1824.92 2195.6 1830.79 2201.39 1830.79 2208.66Z" fill="#3C2A21" fill-opacity="0.5"/>
<path d="M1948.28 2208.66C1948.28 2215.85 1942.41 2221.72 1935.22 2221.72C1928.03 2221.72 1922.15 2215.85 1922.15 2208.66C1922.15 2201.47 1928.03 2195.6 1935.22 2195.6C1942.41 2195.6 1948.28 2201.39 1948.28 2208.66Z" fill="#3C2A21" fill-opacity="0.5"/>
<path d="M2065.77 2208.66C2065.77 2215.85 2059.9 2221.72 2052.71 2221.72C2045.52 2221.72 2039.64 2215.85 2039.64 2208.66C2039.64 2201.47 2045.52 2195.6 2052.71 2195.6C2059.9 2195.6 2065.77 2201.39 2065.77 2208.66Z" fill="#3C2A21" fill-opacity="0.5"/>
<path d="M2183.26 2208.66C2183.26 2215.85 2177.38 2221.72 2170.19 2221.72C2163.01 2221.72 2157.13 2215.85 2157.13 2208.66C2157.13 2201.47 2163.01 2195.6 2170.19 2195.6C2177.38 2195.6 2183.26 2201.39 2183.26 2208.66Z" fill="#3C2A21" fill-opacity="0.5"/>
<path d="M2300.75 2208.66C2300.75 2215.85 2294.87 2221.72 2287.68 2221.72C2280.5 2221.72 2274.62 2215.85 2274.62 2208.66C2274.62 2201.47 2280.5 2195.6 2287.68 2195.6C2294.87 2195.6 2300.75 2201.39 2300.75 2208.66Z" fill="#3C2A21" fill-opacity="0.5"/>
<path d="M2418.23 2208.66C2418.23 2215.85 2412.36 2221.72 2405.17 2221.72C2397.98 2221.72 2392.11 2215.85 2392.11 2208.66C2392.11 2201.47 2397.98 2195.6 2405.17 2195.6C2412.36 2195.6 2418.23 2201.39 2418.23 2208.66Z" fill="#3C2A21" fill-opacity="0.5"/>
<path d="M1243.35 2313.09C1243.35 2320.27 1237.48 2326.15 1230.29 2326.15C1223.1 2326.15 1217.22 2320.27 1217.22 2313.09C1217.22 2305.9 1223.1 2300.02 1230.29 2300.02C1237.48 2300.02 1243.35 2305.9 1243.35 2313.09Z" fill="#3C2A21" fill-opacity="0.5"/>
<path d="M1360.84 2313.09C1360.84 2320.27 1354.96 2326.15 1347.78 2326.15C1340.59 2326.15 1334.71 2320.27 1334.71 2313.09C1334.71 2305.9 1340.59 2300.02 1347.78 2300.02C1354.96 2300.02 1360.84 2305.9 1360.84 2313.09Z" fill="#3C2A21" fill-opacity="0.5"/>
<path d="M1478.33 2313.09C1478.33 2320.27 1472.45 2326.15 1465.26 2326.15C1458.08 2326.15 1452.2 2320.27 1452.2 2313.09C1452.2 2305.9 1458.08 2300.02 1465.26 2300.02C1472.45 2300.02 1478.33 2305.9 1478.33 2313.09Z" fill="#3C2A21" fill-opacity="0.5"/>
<path d="M1595.82 2313.09C1595.82 2320.27 1589.94 2326.15 1582.75 2326.15C1575.56 2326.15 1569.69 2320.27 1569.69 2313.09C1569.69 2305.9 1575.56 2300.02 1582.75 2300.02C1589.94 2300.02 1595.82 2305.9 1595.82 2313.09Z" fill="#3C2A21" fill-opacity="0.5"/>
<path d="M1713.3 2313.09C1713.3 2320.27 1707.43 2326.15 1700.24 2326.15C1693.05 2326.15 1687.18 2320.27 1687.18 2313.09C1687.18 2305.9 1693.05 2300.02 1700.24 2300.02C1707.43 2300.02 1713.3 2305.9 1713.3 2313.09Z" fill="#3C2A21" fill-opacity="0.5"/>
<path d="M1830.79 2313.09C1830.79 2320.27 1824.92 2326.15 1817.73 2326.15C1810.54 2326.15 1804.67 2320.27 1804.67 2313.09C1804.67 2305.9 1810.54 2300.02 1817.73 2300.02C1824.92 2300.02 1830.79 2305.9 1830.79 2313.09Z" fill="#3C2A21" fill-opacity="0.5"/>
<path d="M1948.28 2313.09C1948.28 2320.27 1942.41 2326.15 1935.22 2326.15C1928.03 2326.15 1922.15 2320.27 1922.15 2313.09C1922.15 2305.9 1928.03 2300.02 1935.22 2300.02C1942.41 2300.02 1948.28 2305.9 1948.28 2313.09Z" fill="#3C2A21" fill-opacity="0.5"/>
<path d="M2065.77 2313.09C2065.77 2320.27 2059.9 2326.15 2052.71 2326.15C2045.52 2326.15 2039.64 2320.27 2039.64 2313.09C2039.64 2305.9 2045.52 2300.02 2052.71 2300.02C2059.9 2300.02 2065.77 2305.9 2065.77 2313.09Z" fill="#3C2A21" fill-opacity="0.5"/>
<path d="M2183.26 2313.09C2183.26 2320.27 2177.38 2326.15 2170.19 2326.15C2163.01 2326.15 2157.13 2320.27 2157.13 2313.09C2157.13 2305.9 2163.01 2300.02 2170.19 2300.02C2177.38 2300.02 2183.26 2305.9 2183.26 2313.09Z" fill="#3C2A21" fill-opacity="0.5"/>
<path d="M2300.75 2313.09C2300.75 2320.27 2294.87 2326.15 2287.68 2326.15C2280.5 2326.15 2274.62 2320.27 2274.62 2313.09C2274.62 2305.9 2280.5 2300.02 2287.68 2300.02C2294.87 2300.02 2300.75 2305.9 2300.75 2313.09Z" fill="#3C2A21" fill-opacity="0.5"/>
<path d="M2418.23 2313.09C2418.23 2320.27 2412.36 2326.15 2405.17 2326.15C2397.98 2326.15 2392.11 2320.27 2392.11 2313.09C2392.11 2305.9 2397.98 2300.02 2405.17 2300.02C2412.36 2300.02 2418.23 2305.9 2418.23 2313.09Z" fill="#3C2A21" fill-opacity="0.5"/>
<path d="M1230.29 2430.57C1237.5 2430.57 1243.35 2424.73 1243.35 2417.51C1243.35 2410.3 1237.5 2404.45 1230.29 2404.45C1223.07 2404.45 1217.22 2410.3 1217.22 2417.51C1217.22 2424.73 1223.07 2430.57 1230.29 2430.57Z" fill="#3C2A21" fill-opacity="0.5"/>
<path d="M1347.78 2430.57C1354.99 2430.57 1360.84 2424.73 1360.84 2417.51C1360.84 2410.3 1354.99 2404.45 1347.78 2404.45C1340.56 2404.45 1334.71 2410.3 1334.71 2417.51C1334.71 2424.73 1340.56 2430.57 1347.78 2430.57Z" fill="#3C2A21" fill-opacity="0.5"/>
<path d="M1465.26 2430.57C1472.48 2430.57 1478.33 2424.73 1478.33 2417.51C1478.33 2410.3 1472.48 2404.45 1465.26 2404.45C1458.05 2404.45 1452.2 2410.3 1452.2 2417.51C1452.2 2424.73 1458.05 2430.57 1465.26 2430.57Z" fill="#3C2A21" fill-opacity="0.5"/>
<path d="M1595.82 2417.51C1595.82 2424.7 1589.94 2430.57 1582.75 2430.57C1575.56 2430.57 1569.69 2424.7 1569.69 2417.51C1569.69 2410.32 1575.56 2404.45 1582.75 2404.45C1589.94 2404.45 1595.82 2410.32 1595.82 2417.51Z" fill="#3C2A21" fill-opacity="0.5"/>
<path d="M1713.3 2417.51C1713.3 2424.7 1707.43 2430.57 1700.24 2430.57C1693.05 2430.57 1687.18 2424.7 1687.18 2417.51C1687.18 2410.32 1693.05 2404.45 1700.24 2404.45C1707.43 2404.45 1713.3 2410.32 1713.3 2417.51Z" fill="#3C2A21" fill-opacity="0.5"/>
<path d="M1817.73 2430.57C1824.94 2430.57 1830.79 2424.73 1830.79 2417.51C1830.79 2410.3 1824.94 2404.45 1817.73 2404.45C1810.52 2404.45 1804.67 2410.3 1804.67 2417.51C1804.67 2424.73 1810.52 2430.57 1817.73 2430.57Z" fill="#3C2A21" fill-opacity="0.5"/>
<path d="M1935.22 2430.57C1942.43 2430.57 1948.28 2424.73 1948.28 2417.51C1948.28 2410.3 1942.43 2404.45 1935.22 2404.45C1928 2404.45 1922.15 2410.3 1922.15 2417.51C1922.15 2424.73 1928 2430.57 1935.22 2430.57Z" fill="#3C2A21" fill-opacity="0.5"/>
<path d="M2052.71 2430.57C2059.92 2430.57 2065.77 2424.73 2065.77 2417.51C2065.77 2410.3 2059.92 2404.45 2052.71 2404.45C2045.49 2404.45 2039.64 2410.3 2039.64 2417.51C2039.64 2424.73 2045.49 2430.57 2052.71 2430.57Z" fill="#3C2A21" fill-opacity="0.5"/>
<path d="M2170.19 2430.57C2177.41 2430.57 2183.26 2424.73 2183.26 2417.51C2183.26 2410.3 2177.41 2404.45 2170.19 2404.45C2162.98 2404.45 2157.13 2410.3 2157.13 2417.51C2157.13 2424.73 2162.98 2430.57 2170.19 2430.57Z" fill="#3C2A21" fill-opacity="0.5"/>
<path d="M2287.68 2430.57C2294.9 2430.57 2300.75 2424.73 2300.75 2417.51C2300.75 2410.3 2294.9 2404.45 2287.68 2404.45C2280.47 2404.45 2274.62 2410.3 2274.62 2417.51C2274.62 2424.73 2280.47 2430.57 2287.68 2430.57Z" fill="#3C2A21" fill-opacity="0.5"/>
<path d="M2405.17 2430.57C2412.39 2430.57 2418.23 2424.73 2418.23 2417.51C2418.23 2410.3 2412.39 2404.45 2405.17 2404.45C2397.96 2404.45 2392.11 2410.3 2392.11 2417.51C2392.11 2424.73 2397.96 2430.57 2405.17 2430.57Z" fill="#3C2A21" fill-opacity="0.5"/>
<path d="M1243.35 2521.94C1243.35 2529.13 1237.48 2535 1230.29 2535C1223.1 2535 1217.22 2529.13 1217.22 2521.94C1217.22 2514.75 1223.1 2508.87 1230.29 2508.87C1237.48 2508.87 1243.35 2514.75 1243.35 2521.94Z" fill="#3C2A21" fill-opacity="0.5"/>
<path d="M1360.84 2521.94C1360.84 2529.13 1354.96 2535 1347.78 2535C1340.59 2535 1334.71 2529.13 1334.71 2521.94C1334.71 2514.75 1340.59 2508.87 1347.78 2508.87C1354.96 2508.87 1360.84 2514.75 1360.84 2521.94Z" fill="#3C2A21" fill-opacity="0.5"/>
<path d="M1478.33 2521.94C1478.33 2529.13 1472.45 2535 1465.26 2535C1458.08 2535 1452.2 2529.13 1452.2 2521.94C1452.2 2514.75 1458.08 2508.87 1465.26 2508.87C1472.45 2508.87 1478.33 2514.75 1478.33 2521.94Z" fill="#3C2A21" fill-opacity="0.5"/>
<path d="M1595.82 2521.94C1595.82 2529.13 1589.94 2535 1582.75 2535C1575.56 2535 1569.69 2529.13 1569.69 2521.94C1569.69 2514.75 1575.56 2508.87 1582.75 2508.87C1589.94 2508.87 1595.82 2514.75 1595.82 2521.94Z" fill="#3C2A21" fill-opacity="0.5"/>
<path d="M1713.3 2521.94C1713.3 2529.13 1707.43 2535 1700.24 2535C1693.05 2535 1687.18 2529.13 1687.18 2521.94C1687.18 2514.75 1693.05 2508.87 1700.24 2508.87C1707.43 2508.87 1713.3 2514.75 1713.3 2521.94Z" fill="#3C2A21" fill-opacity="0.5"/>
<path d="M1830.79 2521.94C1830.79 2529.13 1824.92 2535 1817.73 2535C1810.54 2535 1804.67 2529.13 1804.67 2521.94C1804.67 2514.75 1810.54 2508.87 1817.73 2508.87C1824.92 2508.87 1830.79 2514.75 1830.79 2521.94Z" fill="#3C2A21" fill-opacity="0.5"/>
<path d="M1948.28 2521.94C1948.28 2529.13 1942.41 2535 1935.22 2535C1928.03 2535 1922.15 2529.13 1922.15 2521.94C1922.15 2514.75 1928.03 2508.87 1935.22 2508.87C1942.41 2508.87 1948.28 2514.75 1948.28 2521.94Z" fill="#3C2A21" fill-opacity="0.5"/>
<path d="M2065.77 2521.94C2065.77 2529.13 2059.9 2535 2052.71 2535C2045.52 2535 2039.64 2529.13 2039.64 2521.94C2039.64 2514.75 2045.52 2508.87 2052.71 2508.87C2059.9 2508.87 2065.77 2514.75 2065.77 2521.94Z" fill="#3C2A21" fill-opacity="0.5"/>
<path d="M2183.26 2521.94C2183.26 2529.13 2177.38 2535 2170.19 2535C2163.01 2535 2157.13 2529.13 2157.13 2521.94C2157.13 2514.75 2163.01 2508.87 2170.19 2508.87C2177.38 2508.87 2183.26 2514.75 2183.26 2521.94Z" fill="#3C2A21" fill-opacity="0.5"/>
<path d="M2300.75 2521.94C2300.75 2529.13 2294.87 2535 2287.68 2535C2280.5 2535 2274.62 2529.13 2274.62 2521.94C2274.62 2514.75 2280.5 2508.87 2287.68 2508.87C2294.87 2508.87 2300.75 2514.75 2300.75 2521.94Z" fill="#3C2A21" fill-opacity="0.5"/>
<path d="M2418.23 2521.94C2418.23 2529.13 2412.36 2535 2405.17 2535C2397.98 2535 2392.11 2529.13 2392.11 2521.94C2392.11 2514.75 2397.98 2508.87 2405.17 2508.87C2412.36 2508.87 2418.23 2514.75 2418.23 2521.94Z" fill="#3C2A21" fill-opacity="0.5"/>
<path fill-rule="evenodd" clip-rule="evenodd" d="M1591.34 506.643C1754.9 560.821 1874.29 727.977 1911.49 896.209C1947 1056.81 1831.15 1202.95 1779.85 1359.22C1732.01 1504.94 1733.47 1674.35 1621.59 1779.27C1506.24 1887.43 1338.66 1932.66 1180.98 1920.8C1033.08 1909.68 928.854 1786.32 797.564 1717.32C646.315 1637.82 442.746 1632.3 354.111 1486.22C262.116 1334.6 303.936 1140.43 342.507 967.329C382.778 786.598 408.301 552.559 578.437 479.488C754.984 403.663 927.107 628.61 1119.18 633.759C1286.2 638.237 1432.74 454.106 1591.34 506.643Z" fill="#3C2A21" fill-opacity="0.2"/>
</svg>
